/* XPM */
static char *_b3f8b6bb4fe4291ccc7031db3c20cbcJC3at3AzRO8cs4DG[] = {
/* columns rows colors chars-per-pixel */
"44 42 210 2 ",
"   c None",
".  c #A6B7C2",
"X  c #A7B7C3",
"o  c #AAB9C5",
"O  c #ABBAC5",
"+  c #B3C0CB",
"@  c #B5C3CD",
"#  c #BAC7D0",
"$  c #BCC7D0",
"%  c #BBC8D1",
"&  c #BCC8D0",
"*  c #BCC9D1",
"=  c #BDC9D1",
"-  c #BECAD4",
";  c #BFCBD4",
":  c #C0CBD4",
">  c #C1CDD4",
",  c #C0CCD5",
"<  c #C2CDD5",
"1  c #C2CDD6",
"2  c #C2CED6",
"3  c #C3CED7",
"4  c #C4CED7",
"5  c #C5CFD7",
"6  c #C4CFD8",
"7  c #C5D0D8",
"8  c #C5D0D9",
"9  c #C6D0D8",
"0  c #C6D0D9",
"q  c #C7D2D9",
"w  c #C7D2DA",
"e  c #C8D2DA",
"r  c #C9D3DA",
"t  c #C8D2DB",
"y  c #C9D3DB",
"u  c #CAD4DB",
"i  c #CBD4DB",
"p  c #CBD5DB",
"a  c #C8D3DC",
"s  c #CAD4DC",
"d  c #CBD5DC",
"f  c #CAD4DD",
"g  c #CBD4DD",
"h  c #CCD5DC",
"j  c #CCD5DD",
"k  c #CCD6DC",
"l  c #CDD6DC",
"z  c #CCD6DD",
"x  c #CDD6DD",
"c  c #CED7DD",
"v  c #CCD6DE",
"b  c #CDD6DE",
"n  c #CDD7DE",
"m  c #CCD6DF",
"M  c #CDD7DF",
"N  c #CED7DE",
"B  c #CFD7DE",
"V  c #CED7DF",
"C  c #CFD8DE",
"Z  c #CED8DF",
"A  c #CFD8DF",
"S  c #D0D8DF",
"D  c #D0D9DF",
"F  c #D1D9DF",
"G  c #CED8E0",
"H  c #CFD8E0",
"J  c #D0D9E0",
"K  c #D1D9E0",
"L  c #D2D9E0",
"P  c #D1DAE0",
"I  c #D1DAE1",
"U  c #D2DBE0",
"Y  c #D2DAE1",
"T  c #D3DAE1",
"R  c #D2DBE1",
"E  c #D3DBE1",
"W  c #D1DAE2",
"Q  c #D1DBE3",
"!  c #D3DBE2",
"~  c #D4DBE2",
"^  c #D4DCE2",
"/  c #D5DCE2",
"(  c #D5DDE2",
")  c #D4DCE3",
"_  c #D5DCE3",
"`  c #D5DDE3",
"'  c #D7DDE3",
"]  c #D6DEE3",
"[  c #D7DEE3",
"{  c #D2DCE4",
"}  c #D3DDE4",
"|  c #D4DCE4",
" . c #D4DDE4",
".. c #D6DDE4",
"X. c #D6DEE4",
"o. c #D7DEE4",
"O. c #D6DEE5",
"+. c #D6DFE5",
"@. c #D7DFE5",
"#. c #D5DFE6",
"$. c #D6DFE6",
"%. c #D7DFE6",
"&. c #D6DFE7",
"*. c #D8DFE5",
"=. c #D9E0E5",
"-. c #D9E0E6",
";. c #D8E1E7",
":. c #D9E1E7",
">. c #DAE0E6",
",. c #DAE1E6",
"<. c #DBE1E6",
"1. c #DAE1E7",
"2. c #DBE1E7",
"3. c #DBE2E6",
"4. c #DBE2E7",
"5. c #DCE2E7",
"6. c #DCE3E7",
"7. c #D8E1E8",
"8. c #D9E1E8",
"9. c #DAE2E8",
"0. c #DBE2E8",
"q. c #DBE3E8",
"w. c #DBE3E9",
"e. c #DCE2E8",
"r. c #DCE3E8",
"t. c #DDE3E8",
"y. c #DCE3E9",
"u. c #DCE3EA",
"i. c #DCE4E9",
"p. c #DDE4E9",
"a. c #DEE4E8",
"s. c #DEE4E9",
"d. c #DEE5E9",
"f. c #DFE5E9",
"g. c #DCE4EA",
"h. c #DDE4EA",
"j. c #DDE5EB",
"k. c #DFE5EA",
"l. c #DEE5EB",
"z. c #DEE5EC",
"x. c #DFE6EC",
"c. c #E0E5EA",
"v. c #E0E6EA",
"b. c #E1E6EA",
"n. c #E0E6EB",
"m. c #E1E6EB",
"M. c #E2E7EB",
"N. c #E0E7EC",
"B. c #E2E7EC",
"V. c #E3E7EC",
"C. c #E2E8EC",
"Z. c #E3E8EC",
"A. c #E3E8ED",
"S. c #E3E9ED",
"D. c #E1E8EE",
"F. c #E3E9EE",
"G. c #E4E9ED",
"H. c #E5E9ED",
"J. c #E5EAED",
"K. c #E4E9EE",
"L. c #E4EAEE",
"P. c #E5EAEE",
"I. c #E6EAEE",
"U. c #E6EBEE",
"Y. c #E6EBEF",
"T. c #E7EBEF",
"R. c #E7ECEF",
"E. c #E8ECEF",
"W. c #E5EBF0",
"Q. c #E6EBF0",
"!. c #E7EDF1",
"~. c #E8ECF0",
"^. c #E8EDF0",
"/. c #E9EDF0",
"(. c #E9EDF1",
"). c #EAEDF0",
"_. c #EAEDF1",
"`. c #E9EEF1",
"'. c #EAEEF1",
"]. c #EBEEF1",
"[. c #E8EEF2",
"{. c #EAEEF2",
"}. c #EBEFF2",
"|. c #EAEFF3",
" X c #ECEFF2",
".X c #EBF0F3",
"XX c #ECF0F2",
"oX c #ECF0F3",
"OX c #EDF0F3",
"+X c #EDF1F3",
"@X c #EEF1F3",
"#X c #EEF1F4",
"$X c #EFF2F4",
"%X c #EFF3F5",
"&X c #F1F3F5",
"*X c #F1F4F5",
"=X c #F1F4F6",
"-X c #F1F4F7",
";X c #F2F4F6",
":X c #F2F5F7",
">X c #F3F5F7",
",X c #F3F6F7",
"<X c #F4F6F7",
"1X c #F5F7F8",
"2X c #F5F7F9",
"3X c #F6F8F9",
"4X c #F7F8F9",
"5X c #F7F8FA",
"6X c #F8F9FA",
"7X c #F9FAFB",
/* pixels */
"              =X4X                w.                                                    ",
"      k.    Y d n.=X(.  2.P.XX    Y 2.                                                  ",
"  OX1X#XE.7 l 2 ) E.n.OXF ) p a.(.P.k.Y -.                                              ",
"  k.P.Y l % . = & n.*.) ) F & C o.2.  G o.    P.                                        ",
"  &X2.0 t ) O O + 2.o.o.F C [ 2.n.            o.                                        ",
"  n.k.Y ) n.l l o.    o.) ) n.                                                          ",
"y.[ o.A.*.2.|.W.(.    2.=.                                                              ",
"*.Y Y o.*.Y y.B.<X                                                                      ",
"  w.l d 2.d o.w.P.                                                                      ",
"k.l w ; Y o.d 2 Y B.                                                                    ",
"  d d w &.(.P.                                                                          ",
"  w.a &.z.                                                                              ",
"      |.                                                                                ",
"                                                                                        ",
"                                                                                        ",
"                                                                                        ",
"                                                                                        ",
"                                                                                        ",
"                                                                                        ",
"                                                                                        ",
"                                                                                        ",
"                                                                                        ",
"                                                                                        ",
"                                                                            n.          ",
"                                                                            o.  1X1X4X  ",
"                                                                                (.2.P.=X",
"                                                                              k.2.2.n.k.",
"                                                                            7X  F F Y   ",
"                                                          k.            <X<X&X=XOXk.n.  ",
"                                                        (.w.Y o.    7X4X(.) y.*.=X4X1X  ",
"                        k.2.                          OXOXY = : R.  Z.(.n.6 6 l (.(.P.  ",
"          n.R.        E.p t l                 k.      =Xk.# X @ n.) 2.2.t 0 2 0 Y (.P.  ",
"          ~ P.7X&XOX    2 = 2 P.        7X  2.Y   2.  R.6.* @ > F p 2.R.P.4 0 C #XOXw.o.",
"            =Xn.n.P.    ) ) o.l w.  7XP.A.#X%X    k.R.2.2.C p ) =.C P.a.k.*.M.*.k.P.-X  ",
"          =XR.p t M.    o..XG t d A.P.l 0 k.XX  o.G 2.  k.P.F t p 2.2.> G y.E.2.Y p 2.  ",
"          2.n.*.) n.P.    P.w.o.k.  P.Y d n.OXW.l w l     a.0 )   k.A.(.Y l n.~ P.) l   ",
"            n.) k.*.2.  k.  1X(.(.n.) 2.k.2.A.XXw.G o.W.{ w.      -.{ B.G l a y.  B.    ",
"              y.) n.  y.Y    Xy.2.w.) l ) k.2.k.      z.l Q   B.    W.d - 6 G W.  P.    ",
"                            k.) C 2 4 0 F                           A.C 0 a a           ",
"                                Y -.l d Q                           W.w.d G o.      W.  ",
"                                P.  B.{       n.                      (.&.A.        o.  ",
"                                              o.                                        "
};
