/* XPM */
static char *_702967ffc734f069e261b45287841eaXDWpqCYAquYLYedo[] = {
/* columns rows colors chars-per-pixel */
"42 42 161 2 ",
"   c None",
".  c #000000",
"X  c #080807",
"o  c #0B0B0B",
"O  c #141413",
"+  c #181717",
"@  c #181817",
"#  c #1C1B1B",
"$  c #201F1F",
"%  c #20201F",
"&  c #252424",
"*  c #282827",
"=  c #2D2C2B",
"-  c #302F2E",
";  c #30302F",
":  c #343332",
">  c #383737",
",  c #383836",
"<  c #3B3B3A",
"1  c #403F3E",
"2  c #41403F",
"3  c #444442",
"4  c #484746",
"5  c #494947",
"6  c #4C4C4A",
"7  c #504F4E",
"8  c #51514F",
"9  c #545452",
"0  c #585756",
"q  c #595856",
"w  c #5C5C5A",
"e  c #61615F",
"r  c #666563",
"t  c #686764",
"y  c #6A6967",
"u  c #6C6C6A",
"i  c #706F6D",
"p  c #71716F",
"a  c #757471",
"s  c #787775",
"d  c #797977",
"f  c #7D7D7A",
"g  c #807F7D",
"h  c #82817E",
"j  c #848482",
"k  c #8A8986",
"l  c #8E8D8A",
"z  c #908F8C",
"x  c #92918F",
"c  c #969592",
"v  c #989794",
"b  c #9A9995",
"n  c #9E9D9A",
"m  c #A09F9C",
"M  c #A1A09D",
"N  c #A5A4A1",
"B  c #AAA9A5",
"V  c #AEADA9",
"C  c #B0AEAB",
"Z  c #B3B1AE",
"A  c #B6B5B2",
"S  c #B9B7B4",
"D  c #BBBAB6",
"F  c #BEBDBA",
"G  c #C1BFBB",
"H  c #C3C1BE",
"J  c #C6C4C1",
"K  c #C8C7C3",
"L  c #CAC9C5",
"P  c #CDCCC8",
"I  c #D1CECA",
"U  c #D4D2CD",
"Y  c #D6D5D1",
"T  c #D9D7D2",
"R  c #DBDAD5",
"E  c #DEDDD9",
"W  c #E0DEDA",
"Q  c #E4E2DE",
"!  c #E9E5DD",
"~  c #ECE8DF",
"^  c #E6E4E1",
"/  c #E9E6E1",
"(  c #EDEBE5",
")  c #EFEDE9",
"_  c #F1EEE6",
"`  c #F2EFE9",
"'  c #F0EFEA",
"]  c #F0EFEB",
"[  c #F1EFE9",
"{  c #F2F0E7",
"}  c #F1F0EA",
"|  c #F4F1EB",
" . c #F3F0EC",
".. c #F3F1ED",
"X. c #F4F1EC",
"o. c #F5F3ED",
"O. c #F6F3ED",
"+. c #F4F2EE",
"@. c #F5F3EE",
"#. c #F4F3EF",
"$. c #F6F3EF",
"%. c #F6F4EE",
"&. c #F6F4EF",
"*. c #F4F2EC",
"=. c #F5F3F0",
"-. c #F5F4F0",
";. c #F6F4F0",
":. c #F6F5F0",
">. c #F7F5F0",
",. c #F6F4F1",
"<. c #F7F4F1",
"1. c #F6F5F1",
"2. c #F7F5F1",
"3. c #F6F6F2",
"4. c #F7F6F3",
"5. c #F7F5F1",
"6. c #F8F5F1",
"7. c #F8F6F0",
"8. c #F8F6F1",
"9. c #F8F5F2",
"0. c #F8F6F2",
"q. c #F9F6F2",
"w. c #F8F7F2",
"e. c #F9F7F2",
"r. c #F8F6F3",
"t. c #F8F7F3",
"y. c #F9F7F3",
"u. c #FAF6F2",
"i. c #FAF7F3",
"p. c #F8F7F4",
"a. c #F9F7F4",
"s. c #F9F7F2",
"d. c #F8F8F3",
"f. c #F9F8F3",
"g. c #FAF8F3",
"h. c #F8F8F4",
"j. c #F9F8F4",
"k. c #F8F8F5",
"l. c #F9F8F5",
"z. c #FAF8F4",
"x. c #FAF9F4",
"c. c #FAF8F5",
"v. c #FAF9F5",
"b. c #FBF9F5",
"n. c #FAF9F6",
"m. c #FBF9F6",
"M. c #FAFAF6",
"N. c #FBFAF6",
"B. c #FBFAF7",
"V. c #FBFBF7",
"C. c #FCFAF7",
"Z. c #FCFBF7",
"A. c #FAF9F5",
"S. c #FCFAF8",
"D. c #FCFBF8",
"F. c #FCFBF9",
"G. c #FDFCF9",
"H. c #FDFDF9",
"J. c #FEFDF9",
"K. c #FDFDFA",
"L. c #FCFBF8",
/* pixels */
"H.N.y.N.i.H.S.N.Z.d.H.J.i.@.] 4.S.i.2.2.4.=.k.k.4.4.S.J.m.m.S.k.S.i.i.2.2.2.+.2.2.w.",
"Z.y.y.i.i.S.N.N.d.y.Z.Z.i.] ^ E ) ,.@.2.=.] ( ( ] ,.i.i.i.i.S.S.S.N.N.+.2.4.%.2.2.2.",
"Z.y.2.N.N.S.N.2.y.y.Z.d.] T S S ^ @.@.( R F A L ^ @.y.i.k.4.S.N.i.i.N.y.y.y.i.2.3.2.",
"Z.y.y.N.N.N.N.y.@.y.Z.y.R N j V ( +.^ D k p x J / @.,.@.) ) =.4.N.y.N.y.2.N.k.+.2.2.",
"y.y.2.N.N.N.i.2.@.2.2./ B u f K ) E N r 2 u A E ^ E U F A C L ( 2.y.d.2.2.2.N.2.k.N.",
"N.y.2.N.i.S.d.2.+.@.} L p 9 n E E M 7 & 6 N E T S l i 9 5 e n R y.y.N.y.2.2.w.y.V.k.",
"d.y.2.y.2.N.} ^ ( +.^ M 4 w A T B 7 O $ p D F z 0 = @ $ 4 f F ^ d.2.N.N.2.2.y.y.V.N.",
"g.y.y.2.@.+.U A P ( U f : r S A r + . # r j r = o . # q n F Y E W E ( @.%.d.%.y.N.N.",
"d.y.@.%.%.( Z d B W H t * w v a = . . . & & O . . X 3 l V n k h j k n K Q ] 2.y.N.w.",
"g.%.O.@.@.Q v 6 h I D w @ = 3 & . . . . . . . . . X > e 9 > & & : , 0 j B R +.2.d.N.",
"%.O.~ / _ R h , e D A q o . . . . . . . . . . . . . o O X . O 3 a k v b B P ) y.N.y.",
"y.) U H T U g % < k k 1 . . . . . . . . . . . . . . . . . . : c J E W R E ( +.y.N.d.",
"y.( G l B K k * O < < O . . . . . . . . . . . . . . . . . . 1 b L R ^ ) 2.4.N.2.y.N.",
"d.) G i s Z m 2 X X X . . . . . . . . . . . . . . . . . . . + 6 p j n J E ) 4.k.2.N.",
"d.O.L i 5 z V u @ . . . . . . . . . . . . . . . . . . . . . . X O # ; q k J ( k.w.w.",
"g.%.T g ; q b h = . . . . . . . . . . . . . . . . . . . . . . . . . . o & p D ^ 2.i.",
"N.N.^ n < & q q # . . . . . . . . . . . . . . . . . . . . . . . . + ; ; = > a D ) k.",
"Z.J.,.J r # O @ . . . . . . . . . . . . . . . . . . . . . . . . X 2 l n l u r b W k.",
"i.,.) E b < X . . . . . . . . . . . . . . . . . . . . . . . . . . 5 Z R W P A M Q k.",
",.R F U P j = . . . . . . . . . . . . . . . . . . . . . . . . . . ; f F ^ ) ^ ^ =.F.",
"] L j b K F u O . . . . . . . . . . . . . . . . . . . . . . . . . X & r N T ) 3.k.k.",
"2.P a 6 s S j & . . . . . . . . . . . . . . . . . . . . . . . . . . . @ 6 v U ) +.4.",
"N.W j = = y q @ . . . . . . . . . . . . . . . . . . . . . . . . . X # # # 0 V ^ } +.",
"Z.] D r & @ @ . . . . . . . . . . . . . . . . . . . . . . . . . . @ 5 q < : f T 4.k.",
"Z.y.W A y = o . . . . . . . . . . . . . . . . . . . . . . . . . . X < u y 4 r J 2.Z.",
"y.] E Y S k e : X . . . . . . . . . . . . . . . . . . . . . . . . X O 3 f u u S +.u.",
"<.W C m C A C d : . . . . . . . . . . . . . . . . . . . . . . . & > & & s N c F ] N.",
"i.^ B y 0 i z g 3 X . . . . . . . . . . . . . . . . . . . . . o 6 k t : y S K R +.y.",
"g.] U z 2 & - ; # . . . . . . . . . . . . . . . . . . . . . . . = N N 0 r F ! ] 2.%.",
"y.@._ I k 2 + X . . . . . . . . . . . . . . . . . . . . . . X X X n J d i H ( @.2.+.",
"y.%.%.@.U m t < & # % @ . . . . . . . . . . . . . . . . . * 5 & = b U M k K ] O.%.@.",
"2.@.%.%._ ! P M k j k u , o . . . . . . . . . . . . . . & u v 0 < l Y K D R } } %.} ",
"@.O.@.@._ y.O.! W W W D u # . . . . . . . . . . . . . X 3 m K d 3 j Y ( ! ) } _ @.@.",
"} O.o.@.O.%.y.O.] ( I m 7 o . . O O X . . . @ : : O . O t J E c 6 g T 2.y.%.+.( _ O.",
"_ O.O.O.O.y.$._ U V d 4 # . O : w 2 @ . X - i c p * . : c E / M w k T 2.y.%.} ) ) @.",
"( { ] O.` y.@.Q C g 9 < < 5 w k k 5 $ $ 5 k H G a & @ r F ) ( C u n ^ y.@.O.O.) ) %.",
") _ { O.O.@.O./ I S M m N A D B p : 3 y B T E N 4 @ 7 M Q o._ F l S ( y.@.] { _ _ %.",
"} _ _ O.O.%.O.O._ ] / / / ( T n u u m D / ( G u ; 6 v T _ O.] T H Y O.@._ _ _ _ _ } ",
"O._ _ _ _ O.O.@._ $.$.@.@.@.Q H F I Q _ ) U l 9 w b U _ @.O.O._ ~ / @.@.( ) _ _ ) } ",
"_ _ _ _ _ %.{ O.` _ O.%.%.y.@.] ) @.@.%.Q H z x A U _ O.%.%.O.} O.O.O./ ~ ( _ / ( { ",
"_ _ ~ _ _ O._ O._ _ _ O.O.u.u.%.2.y.%.2.  R I T ~ ~ / @.%.@.O._ O.{ _ ! ~ _ { ~ / { ",
"_ ~ _ { _ O._ { _ _ O.O.%.u.g.%.2.2.%.2.) +.%.} +./ ] %.%.O._ O.O.O._ Q ~ / _ ~ / { "
};
