/* XPM */
static char *_1dcd536fd534a2c920ddeea9a88ad402hrq5wZi4DTk56Qz[] = {
/* columns rows colors chars-per-pixel */
"42 42 229 2 ",
"   c #483F38",
".  c #703239",
"X  c #186C66",
"o  c #17746D",
"O  c #0C7E74",
"+  c #137C73",
"@  c #2F6F68",
"#  c #287A76",
"$  c #397673",
"%  c #4D5252",
"&  c #6A494B",
"*  c #5F7E5E",
"=  c #477474",
"-  c #567D77",
";  c #7E7874",
":  c #8B1627",
">  c #971728",
",  c #A7162A",
"<  c #AB1429",
"1  c #A31B2C",
"2  c #AC192D",
"3  c #B2172B",
"4  c #B41C2E",
"5  c #9A222E",
"6  c #862734",
"7  c #8D2A32",
"8  c #982733",
"9  c #863733",
"0  c #A92634",
"q  c #AF2A34",
"w  c #BC2432",
"e  c #B92A37",
"r  c #BA323C",
"t  c #C02635",
"y  c #C12936",
"u  c #C52D3A",
"i  c #C92D3B",
"p  c #C3353E",
"a  c #CB323D",
"s  c #884339",
"d  c #903B45",
"f  c #BB3D45",
"g  c #CC3944",
"h  c #D63B46",
"j  c #D83D47",
"k  c #8C4D4F",
"l  c #A44347",
"z  c #A5565D",
"x  c #966D56",
"c  c #A36550",
"v  c #B66959",
"b  c #B8765C",
"n  c #907170",
"m  c #A76C6D",
"M  c #A77A65",
"N  c #CC494B",
"B  c #D54149",
"V  c #DB464D",
"C  c #DE4F55",
"Z  c #E34B54",
"A  c #E7595B",
"S  c #DA6B5C",
"D  c #E3645B",
"F  c #C17D62",
"G  c #CE7A70",
"H  c #ED7667",
"J  c #7F963F",
"K  c #06877C",
"L  c #28917B",
"P  c #478579",
"I  c #729170",
"U  c #74B776",
"Y  c #9C892D",
"T  c #AE952C",
"R  c #C0A334",
"E  c #D8BA34",
"W  c #E6C63C",
"Q  c #F2CE3E",
"!  c #F6DA3E",
"~  c #FBE33E",
"^  c #FFE83D",
"/  c #A5855A",
"(  c #A8B350",
")  c #899469",
"_  c #919366",
"`  c #9D9864",
"'  c #9D8579",
"]  c #AC896F",
"[  c #B6B26F",
"{  c #A8A97C",
"}  c #D38E6D",
"|  c #E7846A",
" . c #EE9773",
".. c #BEC85C",
"X. c #97C379",
"o. c #B9C867",
"O. c #A7C570",
"+. c #BBC779",
"@. c #DBCC4E",
"#. c #C7CA5E",
"$. c #DACC53",
"%. c #D7D553",
"&. c #E9CD45",
"*. c #F2D642",
"=. c #EBDD56",
"-. c #F2DA56",
";. c #F7E347",
":. c #C7CC65",
">. c #C8C877",
",. c #D2D371",
"<. c #EEDC65",
"1. c #D9E573",
"2. c #F3E675",
"3. c #9E7E80",
"4. c #068C82",
"5. c #128B8C",
"6. c #02968A",
"7. c #019A8D",
"8. c #159087",
"9. c #059D93",
"0. c #1A9795",
"q. c #2F8E8A",
"w. c #259B9A",
"e. c #06A298",
"r. c #0CA39C",
"t. c #17A69D",
"y. c #2AA79B",
"u. c #08AEAC",
"i. c #15AAA8",
"p. c #06B4B5",
"a. c #15B5B4",
"s. c #1EB4B3",
"d. c #37ADA3",
"f. c #27B3AB",
"g. c #39B5A9",
"h. c #24B6B5",
"j. c #2BB7B5",
"k. c #27B8B7",
"l. c #32B7B4",
"z. c #36B8B5",
"x. c #3BB8B4",
"c. c #4E978F",
"v. c #6C8986",
"b. c #73908C",
"n. c #79998E",
"m. c #53B499",
"M. c #6AAD92",
"N. c #67BD9B",
"B. c #4AB8A9",
"V. c #57BBA8",
"C. c #44BAB3",
"Z. c #4BBBB4",
"A. c #54BDB4",
"S. c #5BBFB4",
"D. c #68B7A7",
"F. c #79BCAC",
"G. c #67BFB3",
"H. c #7DC399",
"J. c #5EC0B3",
"K. c #69C4AE",
"L. c #79C5A8",
"P. c #63C1B4",
"I. c #6CC3B5",
"U. c #68C2B8",
"Y. c #73C5B6",
"T. c #7EC8B6",
"R. c #78C7B8",
"E. c #8C9897",
"W. c #A28385",
"Q. c #B2958A",
"!. c #A79896",
"~. c #8FB389",
"^. c #A4A584",
"/. c #B4B48B",
"(. c #A7A19B",
"). c #B1A797",
"_. c #949CA0",
"`. c #9DA6A5",
"'. c #A6A8A7",
"]. c #B5AAA6",
"[. c #AFB1AC",
"{. c #ABB4BA",
"}. c #BAB9B7",
"|. c #C4ADAB",
" X c #C3BDB7",
".X c #8DC491",
"XX c #A4C787",
"oX c #ACD69A",
"OX c #B5D290",
"+X c #84CAA7",
"@X c #96CDA5",
"#X c #88CCB8",
"$X c #96CFB0",
"%X c #9AD2B6",
"&X c #A3D0A3",
"*X c #C6CB92",
"=X c #EFEC8C",
"-X c #C8C4AC",
";X c #C9C4BE",
":X c #AEB9C0",
">X c #B9C4CB",
",X c #BECAD2",
"<X c #CDC7C4",
"1X c #CACAC7",
"2X c #D3CCCA",
"3X c #D5D2CD",
"4X c #C7D1D8",
"5X c #DBD9D5",
"6X c #E1DFDB",
"7X c #E4E2DD",
"8X c #E9E5DD",
"9X c #ECE8DF",
"0X c #CDDBE3",
"qX c #D4DFE5",
"wX c #DAE5EB",
"eX c #DEEAF0",
"rX c #E4E7E7",
"tX c #EDEBE4",
"yX c #EEEEEA",
"uX c #F1EEE6",
"iX c #F1EFE9",
"pX c #F2F0E7",
"aX c #F5F2ED",
"sX c #E8EEF1",
"dX c #EAF0F2",
"fX c #F7F5F1",
"gX c #F8F6F2",
"hX c #FBF9F5",
"jX c #FDFCF9",
/* pixels */
"jXhXgXjXgXjXjXjXjXgXjXjXgXaXdXgXhXgXfXfXgXfXgXgXgXgXhXhXjXhXhXhXhXhXhXfXgXfXiXgXgXgX",
"jXhXfXjXgXjXjXgXjXgXjXjXgXaXfXgXhXhXaXfXgXgXhXfXfXfXgXgXhXhXhXhXhXhXhXaXfXgXfXfXfXfX",
"hXgXfXhXhXjXgXgXgXgXjXhXgXaXfXhXhXfXfXfXfXgXhXyX3X5XyXgXhXhXjXhXhXhXhXgXgXgXgXfXfXfX",
"jXgXgXhXhXjXhXgXaXfXjXjXgXiXiXhXjXhXfXgXgXgX1XW./ M ' <XdXfXjXhXjXhXhXgXgXhXgXfXfXfX",
"hXgXhXhXhX5X[.[.5XdXgXjXgXiXaXgXhXhXgXgXuX)./ S D A A m <XgXjXhXhXgXhXfXgXfXhXgXjXhX",
"hXfXfXhX X_.:X,X{.1X1X:X2XiXaXhXhXhXjXaX).F D B g V Z C W.fXhXjXjXgXhXgXaXfXhXgXhXhX",
"hXhXfX2X_.eXdXwX`.,X0X4X:X'.6X6XtXfXgX XF V a 0 f j Z Z G iXhXjXjXaXhXhXfXgXgXgXhXhX",
"hXfXfX'.'.!.dX}.,XeXsXsXwX:X{ *X/.).).] N i p r h g j j m 2XhXhXhXaXgXgXgXgXfXgXhXhX",
"hXfX6X'.I & 5X{.qX].!.iXsX0X^.=X=X=X,.` s 5 y a e > p h h l <XfXhXaXfXhXfXfXgXgXhXgX",
"gXaX5X'.4X3X1X:X4X%   6XfXwXn.,.<.<.2.2.1./ 9 5 , 1 i y a r W.gXhXfXfXgXaXfXgXgXhXhX",
"hXaXrX(.wXhX}.,XwX; n yXgXrXv.( *.*.Q Q *.*X[ k : 4 4 > e e n fXfXfXhXgXfXaXgXgXhXgX",
"fXfXiX}.{.eX{.>XsXaXyXfXgXqXP U $.&.W @.o.K.L.OX/ . < < t 3 n fXhXgXhXaXfXhXgXgXhXhX",
"hXiXaXiX[.{.n.E.wXaXfXfXdX:X# g.V.N.N.m.B.Z.V.#.<.` . , < , n jXhXhXhXfXhXgXgXgXhXhX",
"gXfXfXgXfX!.I = ,XeXrXwXwXv.8.Z.Z.Z.A.q.B.S.S.#.*.OX[ 9 < > ].jXhXhXgXhXhXhXhXhXfXgX",
"gXgXgXgX6X{ OX8.= }.0X4Xb.+ d.A.c.V.S.I ( #.+XH.X.Y.@X[ 9 : 2XjXjXgXhXfXgXgXhXjXgXgX",
"hXgXgXhX[.>.#Xg.8.o $ @ O d.A.S.c.P .XT T W $.L.U.L.:.-.[ n iXhXhXhXhXfX1X}.}.5XgXhX",
"hXjXjXgX/.*XP.J.A.d.y.y.B.G.G.G.b.D.o.R T W Q O.Y.XXQ ! =.{ 5XhXaXgX6XW./ F b n 1XjX",
"hXjXiX&X/.oXP.U.G.I.G.I.G.Y.Y.D.M.#X#.R Y E Q o.T.,.! ! *.<./.hXaX2X] | H A A D W.hX",
"hXjXfX^.` &XY.Y.I.Y.Y.R.R.R.L.I +XT.,.R Y E Q >.$X=.! ! ~ ;.>.rX;X] | A Z Z Z Z m iX",
"hXhXhX-X[ I G.T.R.T.T.R.#XF.I .X#X#X>.T Y E Q OX&X;.~ ~ ~ ^ =.|.Q.| N q g Z Z j m hX",
"hXhXjX XOX~.I I M.F.`.I.b.I { %X#X$X&XY T E $.@X@X*.~ ~ ~ ~ ;.:./ N 1 0 h j V 0 !.hX",
"hXhXgX;XXXJ.L.~._ ) I ) { OX%X%X%X%X%X* J ( H.A.K.@.Q *.! ~ ~ 1.+.l h j j g 4 k 6XhX",
"jXgXjX3X{ J.Z.S.K.L.+X+XK.S.J.I.Y.Y.D.o 6.d.Z.C.C.O.Q Q Q Q %.H.&Xc q q y < d <XiXaX",
"jXjXgXiX^.L.C.C.Z.C.C.C.C.C.C.X.X.C.q.O 9.x.C.D.B.B.X.#.o.X.V.C.T.x 4 w h d 2XjXhXhX",
"gXgXgXgX[.M.x.x.x.C.x.x.C.x.V.@.@.m.L K t.x.N.@.X.x.x.x.C.z.x.z.w.& 0 0 u f |.jXjXjX",
"jXjXgXjX5XP z.g.z.x.x.z.z.z.C.o.O.d.o 7.f.x.M.Q X.z.l.l.z.z.f.e.X > 4 , 4 a l 3XjXjX",
"gXgXgXjXfXn.0.z.j.l.j.l.l.j.j.z.z.L K t.j.l.B.X.V.l.l.l.l.j.9.+ . < 5 w u i e m fXhX",
"jXgXgXjXfX3X@ t.j.j.j.k.j.j.j.j.w.+ L M.j.h.k.k.h.h.h.h.s.t.6.% , < 4 4 e t y 8 3XgX",
"gXgXgXhXfXfX(.K r.s.s.s.h.h.h.0.+ 9.U ..j.h.$ w.s.s.s.i.e.7.L !.6 < 3 w w w w > ].fX",
"gXfXgXgXfXaXuXv.4.9.i.a.a.a.i.4.e.u.f.g.a.0.6 . t.a.r.9.7.K E.pXd > < 3 3 4 3 :  XiX",
"gXfXgXgXfXfXfX6X- 4.7.9.u.u.p.p.p.p.p.p.5.& g , % 4.7.7.K - tXfXtXn : , < < > k rXaX",
"fXaXgXgXaXfXgXpX3X- 4.7.7.9.e.e.r.0.+ % d h u e : X K @ E.7XhXhXjXdX(.k 6 6 k  XaXaX",
"aXaXaXaXpXgXgXaXaX6Xv.+ 7.7.6.7.P } N V j u 0 u < & `.5XgXaXhXhXjXhXhXtX2X3XtXuXiXaX",
"pXaXfXfXaXgXgXaXgXgXiX'.@ + K 6.P  .V u h 0 0 5 w 6 3XgXgXfXgXhXjXhXgXhXhXaXiXiXiXaX",
"pXpXaXaXaXgXgXaXaXgXgXuX} v k . & } A q p 7 2 > y : ].gXgXfXgXgXjXfXiXgXhXfXiXuXiXfX",
"uXpXpXaXpXgXgXaXaXjXgXuX).| j i 1 b | 8 2 r > w w , !.gXaXaXgXgXhXhXhXhXfXfXiXuXyXaX",
"uXpXuXaXaXaXaXgXaXhXfXaX).} V a w 9  .N > i 4 y i 2 3.fXfXfXgXaXfXhXhXgXaXiXiXuXiXaX",
"pXuXaXiXaXaXaXaXpXgXfXaX5X] D a y > x H i y p i u 2 3.fXaXaXaXfXaXiXgXaXuXuXuXtXiXpX",
"pXiXuXaXpXaXaXaXpXfXaXaXfX).F B e d (.M S a a i y 1 Q.fXaXaXaXaXaXuXaXiXuXtXuXtXtXaX",
"pXuXuXuXpXaXaXaXpXpXaXfXaXaXQ.c 8 Q.aX[./ S a t w 1 ].fXfXaXaXiXaXaXaXuXtXtXuXtXtXiX",
"uXuXuXuXuXfXpXpXuXuXpXfXfXgXpX<X%XaXgXgX(.M v p w 0 <XaXgXaXiXaXpXaXuX8X7XtXuX9XtXuX",
"uX9XtXpXuXpXuXuXuXuXpXaXfXgXgXgXfXgXgXaXaXrX].m q z 8XaXfXaXiXiXaXpXuX8X8XtXuX8XtXiX"
};
