/* XPM */
static char *_20f824a0ecd4a9380d2333ade11205azkhnrXgq6q0WZDUx[] = {
/* columns rows colors chars-per-pixel */
"42 42 80 1 ",
"  c None",
". c gray55",
"X c #929292",
"o c #939393",
"O c gray61",
"+ c gray62",
"@ c #9F9F9F",
"# c gray63",
"$ c #A2A2A2",
"% c #A4A4A4",
"& c gray66",
"* c #AAAAAA",
"= c gray67",
"- c gray68",
"; c #AEAEAE",
": c #AFAFAF",
"> c gray69",
", c #B1B1B1",
"< c #B2B2B2",
"1 c gray70",
"2 c #B4B4B4",
"3 c gray71",
"4 c #B6B6B6",
"5 c #B7B7B7",
"6 c gray72",
"7 c #B9B9B9",
"8 c gray73",
"9 c #BBBBBB",
"0 c #BCBCBC",
"q c gray74",
"w c gray",
"e c gray75",
"r c #C0C0C0",
"t c #C1C1C1",
"y c gray76",
"u c #C3C3C3",
"i c gray77",
"p c #C5C5C5",
"a c #C6C6C6",
"s c gray78",
"d c #C8C8C8",
"f c gray79",
"g c #CACACA",
"h c #CBCBCB",
"j c gray80",
"k c #CDCDCD",
"l c #CECECE",
"z c gray81",
"x c #D0D0D0",
"c c gray82",
"v c #D2D2D2",
"b c LightGray",
"n c gray83",
"m c #D5D5D5",
"M c gray84",
"N c #D7D7D7",
"B c #D8D8D8",
"V c gray85",
"C c #DADADA",
"Z c gray86",
"A c gainsboro",
"S c #DDDDDD",
"D c gray87",
"F c #DFDFDF",
"G c gray88",
"H c #E1E1E1",
"J c #E2E2E2",
"K c gray89",
"L c #E4E4E4",
"P c gray90",
"I c #E6E6E6",
"U c #E7E7E7",
"Y c gray91",
"T c #E9E9E9",
"R c #EAEAEA",
"E c #ECECEC",
"W c gray93",
"Q c #EEEEEE",
"! c gray95",
"~ c gray99",
/* pixels */
"xxxmmmmmmmmmmmBBmBBxxmBBSKmB!mRWKUBUm6qzza",
"xxxxxmmmmmmmmmmmmBBxzmBBBKza!mSRKRSUzaqxyy",
"xzxxxmmmmxmmmxBmmBmxaxBBm66mmBKBKRSh6mzyzx",
"zxxxxxmxmmmxmmmmmxmzzhBBBamUB6K~WUK=amhahz",
"zzxxxmxmxmmmxmmmmhahxhzaxKSUUq6Sxa=:Bxxaah",
"zzxxxxmxmmzxmmmmmxmBmxhyzBay6266> .X>xmhhh",
"zzxxxxxxxmmmxmzxmmmBxBBmzh6    6  +qahhazy",
"hzxxxxxxxmxxmmmxmmxmzmmmBK        $yhx6yha",
"zzzzzzzxxxxmmxxxmxhqzahmSW         6zxhahh",
"hhzhzzzzxxxxmxmzaazhzahxzz         2yhazah",
"hhhhhzzzxxxmmxxxhzxhahzz:           :6zhhh",
"hhhzzzzzzxxxxxxmxxmxaaa>             X>hzz",
"zhhzzzzhzzxxxxxxxxxmzq2              Ohzzh",
"hhhzzhzzzxxxxxmxxxxxxBB              2zzzh",
"hzhzzzhzzzzxxxxxzzzzhma              >hzzh",
"hhhhhzzzzzzzxmxxzhazq>               2azhh",
"hhzhhzhzzzhzzzzzzhzzq=              %yahya",
"ahhhzhzzhxzzhhhzzzzaq>              aaahah",
"hhhhhzhzzzzzzzhahzzhxzz             qaahhh",
"hhhhzhzzzxzhzzhhzhyhxxhy            y:yhaa",
"ahhhzhzzzzzzzhayqqhhqxyqa           2=yahh",
"hhhzhhhzzzzzzzhhhhxxzxq6q          >2yhhha",
"hhhhhzhzzzzhzzzahhxmmzha           62yhahh",
"hhhhhhzhzzzzzzxahhaahhazh          6=qhaaa",
"ahhhhhzhzzhzzxxhhza626aqyBB     mhy>$qqaaa",
"aahhhhhzhzzhzxxzhxxxxyhy2zKmya zyyy22aqaaa",
"ahhhzazzzhzzzxxzzzxmzyy66qaa6amzyqaayhayah",
"hhhhhhhhhzzzzhzxzxhazya6yqy+2qqhzyyhhhaaah",
"hahhhhhzzzxxzhzzxmzhzhha6>2=226hyyyaahyaah",
"hhhhhhhhzzzzzzhzxxhaahaqqqyq22626yaahyyaah",
"ahahhhhhzzzhzzhhhhhhhhhaaqay:qq6yqahhqqhaa",
"hhhazzhhhhhzzzhzzzxzzzzayqyq>yqaayaha6yaaa",
"hahhzhhhhzzzzhzhzhzzhyaaa6y6qaqqhaay6qhyaa",
"ahhzhzhzhhhzzzhhhhzhaahhhyyyyyayaz66ahhyyh",
"hzzhxxxzzhzxxxxzzzhhahaqzhyaahhhyaqazhhzhh",
"SSKSSKKKKKKKKKUKKUKKKKKKKKKSKKSKSBSKKSKSSK",
"KKKKUKUKKUUUUUKUUUUUUUUUUKUKUKUKUKKUKKKKSK",
"KKKKKUKUUKKUUUUUKUUUUKUKUUUKKUKUKUUKKKKKKK",
"KKKKKKUKKUUKUUUKUUUKUKUUUUUUUKUKUKUKUKUKKK",
"KKKUKUKUUKKUKKUUKUUUUUUUKUKUKUKUKUKUKKKKKK",
"KKKUKKKUKUUKUKUKUKUKUKUKUKUKUKUKUKKUKKUKKK",
"KKKKKKKKKKKUKUKUKUKUKUKUKUKUKUKKKUKKKKKKKK"
};
