/* XPM */
static char *fbf6c85d310148d9a70982e683df1c64pdXHxIGZZYGJiTuf[] = {
/* columns rows colors chars-per-pixel */
"42 42 217 2 ",
"   c None",
".  c #31261F",
"X  c #2D231E",
"o  c #362B26",
"O  c #5C1D26",
"+  c #5A1F28",
"@  c #641D27",
"#  c #781726",
"$  c #56262D",
"%  c #66353A",
"&  c #762D32",
"*  c #22403E",
"=  c #614B3E",
"-  c #1D4C47",
";  c #185650",
":  c #2D4947",
">  c #156A63",
",  c #17746D",
"<  c #0A7D73",
"1  c #137C73",
"2  c #0C766D",
"3  c #257A77",
"4  c #31736E",
"5  c #30685C",
"6  c #50504D",
"7  c #745646",
"8  c #724A48",
"9  c #5F7E5E",
"0  c #467474",
"q  c #6F7072",
"w  c #8C1527",
"e  c #851526",
"r  c #981728",
"t  c #A30E26",
"y  c #AB1429",
"u  c #A31B2C",
"i  c #A7162A",
"p  c #B41C2E",
"a  c #B2172B",
"s  c #AE1E30",
"d  c #B41F31",
"f  c #98212E",
"g  c #972832",
"h  c #863733",
"j  c #8B2832",
"k  c #B7202F",
"l  c #A92634",
"z  c #BC2432",
"x  c #B92A37",
"c  c #BA323C",
"v  c #A73339",
"b  c #C02635",
"n  c #C12936",
"m  c #C52D3A",
"M  c #CA2E3B",
"N  c #C22738",
"B  c #CB323D",
"V  c #C3353E",
"C  c #884339",
"Z  c #833D43",
"A  c #CC3944",
"S  c #D63B46",
"D  c #D83D47",
"F  c #845D47",
"G  c #964B47",
"H  c #A64F49",
"J  c #986B53",
"K  c #8C6E4F",
"L  c #A67659",
"P  c #B7755B",
"I  c #B16953",
"U  c #CC494B",
"Y  c #D54149",
"T  c #DB464D",
"R  c #DE4F55",
"E  c #E34B54",
"W  c #E7595B",
"Q  c #DA6B5C",
"!  c #E3645B",
"~  c #C37D61",
"^  c #DB7A63",
"/  c #ED7667",
"(  c #7F963F",
")  c #06877C",
"_  c #2CA17D",
"`  c #488679",
"'  c #729170",
"]  c #74B776",
"[  c #9C892D",
"{  c #AE952C",
"}  c #BFA235",
"|  c #D8BA34",
" . c #C0A334",
".. c #F2CE3E",
"X. c #F6DA3E",
"o. c #E6C63C",
"O. c #FBE33E",
"+. c #FFE83D",
"@. c #898558",
"#. c #998F5B",
"$. c #A5855A",
"%. c #A8B350",
"&. c #899469",
"*. c #8E9169",
"=. c #AB9261",
"-. c #9EA872",
";. c #ABA566",
":. c #B9B66F",
">. c #DB8F6C",
",. c #E7846A",
"<. c #EE9773",
"1. c #C4BD6E",
"2. c #BEC85C",
"3. c #97C379",
"4. c #B9C867",
"5. c #BBC779",
"6. c #A7C570",
"7. c #DBCC4E",
"8. c #C7CA5E",
"9. c #DACC53",
"0. c #D7D553",
"q. c #E9CD45",
"w. c #F1CF41",
"e. c #F2D642",
"r. c #F2DA56",
"t. c #EBDD56",
"y. c #F7E347",
"u. c #C8C966",
"i. c #CFD267",
"p. c #CFD076",
"a. c #EEDC65",
"s. c #F3E675",
"d. c #D9E573",
"f. c #7C7F84",
"g. c #068C82",
"h. c #019A8D",
"j. c #02968A",
"k. c #159087",
"l. c #059D93",
"z. c #1A9795",
"x. c #128B8C",
"c. c #259B9A",
"v. c #2F8E8A",
"b. c #0CA39C",
"n. c #06A298",
"m. c #17A69D",
"M. c #2AA79B",
"N. c #15AAA8",
"B. c #0CB0AE",
"V. c #06B4B5",
"C. c #1EB4B3",
"Z. c #15B5B4",
"A. c #05ACAB",
"S. c #37ADA3",
"D. c #39B5A9",
"F. c #24B6B5",
"G. c #2BB7B5",
"H. c #27B8B7",
"J. c #32B7B4",
"K. c #36B8B5",
"L. c #3BB8B4",
"P. c #27B3AB",
"I. c #4E978F",
"U. c #789D8F",
"Y. c #7B8E92",
"T. c #6F8B86",
"R. c #53B499",
"E. c #67BD9B",
"W. c #6AAD92",
"Q. c #4AB8A9",
"!. c #57BBA8",
"~. c #44BAB3",
"^. c #4BBBB4",
"/. c #5BBFB4",
"(. c #54BDB4",
"). c #68B7A7",
"_. c #79BCAC",
"`. c #67BFB3",
"'. c #7DC399",
"]. c #7BC089",
"[. c #5EC0B3",
"{. c #69C4AE",
"}. c #79C5A8",
"|. c #63C1B4",
" X c #6CC3B5",
".X c #68C2B8",
"XX c #73C5B6",
"oX c #7EC8B6",
"OX c #78C7B8",
"+X c #8B9095",
"@X c #8FB389",
"#X c #A7B184",
"$X c #939DA3",
"%X c #9BA5AB",
"&X c #ABB6BD",
"*X c #A5ADB4",
"=X c #A4C687",
"-X c #ACD69A",
";X c #B5D290",
":X c #84CAA7",
">X c #96CDA5",
",X c #88CCB8",
"<X c #9AD2B6",
"1X c #96CFB0",
"2X c #A3D0A3",
"3X c #8DC491",
"4X c #EFEC8C",
"5X c #C2D892",
"6X c #B3BCC2",
"7X c #B8C4CB",
"8X c #BECAD2",
"9X c #C6D2DA",
"0X c #CDDAE2",
"qX c #D2DEE5",
"wX c #DAE6EE",
"eX c #D6E4EC",
"rX c #DDEAF1",
/* pixels */
"                                                                                    ",
"                                            7 J J 7                                 ",
"                                        = L ^ ! W W I                               ",
"        +X7X8X$X    +X                7 ~ ! S U T E R G                             ",
"      +XqXrX0X*X7XqX9X&Xq             ~ R B v c D D E H                             ",
"    q +X6   f.7XrXrXrXeX6X*.1.:.@.  L U M x c B D D D Z                             ",
"    +Xq .   $XqXf.    rX0X#X4X4X4Xp.=.C u b M n u A S A g                           ",
"    $X6X    6X7Xo .     eXY.i.a.a.s.s.p.#.h i i u M m A c +                         ",
"    f.qX    8X  . o     qXI.%...q.....t.d.5.F w p p w x n @                         ",
"      &XwX*X7XrX        9Xf.] 9.q.q.7.4.!.{.;X#.j t y n a @                         ",
"      q *X+X$XeX      rX6X3 S.!.E.E.I.^.Q.!.8.a.;.h t y i +                         ",
"        6 ' 4 9XwXwXrXeXT.x.^.^.^.(.v.Q././.8.q.;X-.h r r                           ",
"        =.-Xk.0 6X0X8XY.1 S.(.I.!.|.' %.u.'.'.=X).>X1.h e                           ",
"        p.:XD.k.4 4 4 1 M.(.!.I.0 3X{ { ..9.}..X}.u.r.:.%                           ",
"      @.;X|.[.^.S.M.M.Q.|.|.`.W.).4.} [ o.e.=XXX=Xe.e.r.;.          8 L ~ P F       ",
"      #.-X.X.X.X|. X X XXXXXW.@XoX0. .[ | X.5.oXi.e.X.e.a.@.      J ,./ W W ! 7     ",
"    @.#.2XXX XXXXXXXXXXXOXXX' :X,Xi.} [ | o.u.>Xt.O.X.O.y.1.    L ,.W E E E E G     ",
"    ;.:.' ).OXOXoXOX,XoX_.T.#X,X,X5.{ [ | q.;X2Xy.O.O.O.O.t.#.L ,.U v A E E S &     ",
"      -X@X' ' _._._._.U.' :.<X,X,X>X[ { | 0.>X3Xe.O.O.O.+.y.1.L A u l S T D s       ",
"      #X|.:X@X&.&.&.*.-.-X<X<X<X<X1X9 ( %.'.[.{.0.o.e.X.O.+.d.5.H S D D A a #       ",
"      -.{.~.[.{.}.:X:X{.[.[..X XXX)., j.Q.^.[.L.6.w.....e.0.'.-XJ k l N y e         ",
"      @.}.~.L.~.~.~.~.~.~.Q.3.3.^.v.1 l.D.~.R.[.^.3.2.2.3.!.^.}.K l x B g           ",
"        W.J.L.L.L.L.L.L.L.!.7.7.!.3 g.m.L.'.7.3.L.L.~.~.L.L.K.M.8 u l m c           ",
"        4 D.L.L.L.L.L.K.G.Q.4.6.S., h.P.J.W...3.K.K.J.J.J.P.b.> f p u z B g         ",
"        - z.J.J.J.J.G.G.J.G.L.K._ ) b.G.F.[.-.Q.G.G.G.G.G.l.1 & y r b n M x &       ",
"          > N.H.G.F.G.G.G.G.F.c.> _ W.G.C.H.H.F.G.F.F.F.b.j.: t a p k b n b f       ",
"            < b.C.F.F.F.F.C.c.1 j.] 2.G.C.4 c.Z.C.F.N.b.j.2   r t a z b b z r       ",
"            - ) l.N.Z.Z.Z.N.g.b.B.C.D.Z.z.j % z.B.b.l.h.) -   @ r y a p p a w       ",
"              ; g.h.n.A.V.A.V.V.V.V.A.x.8 A i 6 h.h.h.< -       @ w t y y r @       ",
"                ; g.h.h.h.l.A.b.z.3 6 G S A x w > ) > *             @ # # O         ",
"                  - < h.h.j.l.` ~ U R D A r V a $                                   ",
"                      5 1 g.h.4 <.R A A a l f N #                                   ",
"                      =.P Z % Z >.! l A f s u N r                                   ",
"                      L ,.D B u P / v k v r d n r +                                 ",
"                        >.T S d h >.U r M k N m s +                                 ",
"                        L ! B b r K ,.V N M m m s @                                 ",
"                          P T b w   L Q B M m n u O                                 ",
"                          = H g O     J Q B n b r                                   ",
"                                        7 ~ V p r                                   ",
"                                            J v f                                   ",
"                                                                                    ",
"                                                                                    "
};
