/* XPM */
static char *ffdf5bfc2af441c5c0ac06ccf1fd3bfb3B9cDODL0pMVFHuu[] = {
/* columns rows colors chars-per-pixel */
"42 42 198 2 ",
"   c None",
".  c #E9E4DA",
"X  c #EAE5DC",
"o  c #EAE6DC",
"O  c #E8E5DE",
"+  c #E9E6DE",
"@  c #E8E6DF",
"#  c #ECE8DF",
"$  c #EAE7E1",
"%  c #EAE8E1",
"&  c #ECE9E3",
"*  c #EDEAE2",
"=  c #ECEAE3",
"-  c #EDEAE3",
";  c #EEEAE2",
":  c #EEEAE3",
">  c #EFEBE3",
",  c #ECEAE4",
"<  c #EDEAE4",
"1  c #EDEBE5",
"2  c #EEEBE4",
"3  c #EFEBE4",
"4  c #EEECE4",
"5  c #EFECE4",
"6  c #EEECE5",
"7  c #EFECE5",
"8  c #EEECE6",
"9  c #EFECE6",
"0  c #EFEDE6",
"q  c #EFEDE7",
"w  c #EFEDE8",
"e  c #F0ECE4",
"r  c #F0EDE4",
"t  c #F0ECE5",
"y  c #F1EDE5",
"u  c #F1EEE5",
"i  c #F0EDE6",
"p  c #F0EDE7",
"a  c #F1EEE6",
"s  c #F0EEE7",
"d  c #F1EEE7",
"f  c #F1EFE7",
"g  c #F2EFE7",
"h  c #F0EDE8",
"j  c #F0EEE8",
"k  c #F1EEE8",
"l  c #F1EFE8",
"z  c #F0EEE9",
"x  c #F1EEE9",
"c  c #F0EFE9",
"v  c #F1EFE9",
"b  c #F2EFE8",
"n  c #F3EFE8",
"m  c #F2EFE9",
"M  c #F0EFEA",
"N  c #F1EFEA",
"B  c #F3F0E8",
"V  c #F2F0E9",
"C  c #F3F0E9",
"Z  c #F2F0EA",
"A  c #F3F0EA",
"S  c #F3F1EA",
"D  c #F2F0EB",
"F  c #F3F0EB",
"G  c #F3F1EB",
"H  c #F4F0E9",
"J  c #F4F1EA",
"K  c #F4F1EB",
"L  c #F5F1EB",
"P  c #F4F2EB",
"I  c #F5F2EB",
"U  c #F2F0EC",
"Y  c #F3F1EC",
"T  c #F2F1ED",
"R  c #F3F1ED",
"E  c #F3F2EC",
"W  c #F3F2ED",
"Q  c #F3F2EE",
"!  c #F3F3EF",
"~  c #F4F1EC",
"^  c #F4F1ED",
"/  c #F4F2EC",
"(  c #F5F2EC",
")  c #F5F3EC",
"_  c #F4F2ED",
"`  c #F5F2ED",
"'  c #F5F3ED",
"]  c #F6F3ED",
"[  c #F4F2EE",
"{  c #F4F3EE",
"}  c #F5F3EE",
"|  c #F4F2EF",
" . c #F4F3EF",
".. c #F5F3EF",
"X. c #F6F3EE",
"o. c #F6F3EF",
"O. c #F6F4ED",
"+. c #F5F4EE",
"@. c #F5F4EF",
"#. c #F6F4EE",
"$. c #F7F4EE",
"%. c #F6F4EF",
"&. c #F7F4EF",
"*. c #F6F5EF",
"=. c #F7F5EF",
"-. c #F8F5EF",
";. c #F5F4F0",
":. c #F5F4F1",
">. c #F6F4F0",
",. c #F7F4F0",
"<. c #F6F5F0",
"1. c #F7F5F0",
"2. c #F6F4F1",
"3. c #F6F5F1",
"4. c #F7F5F1",
"5. c #F7F6F0",
"6. c #F7F6F1",
"7. c #F6F4F2",
"8. c #F7F5F2",
"9. c #F6F6F2",
"0. c #F7F6F2",
"q. c #F7F6F3",
"w. c #F8F5F0",
"e. c #F8F5F1",
"r. c #F8F6F0",
"t. c #F8F6F1",
"y. c #F9F6F1",
"u. c #F8F7F1",
"i. c #F9F7F1",
"p. c #F8F5F2",
"a. c #F8F6F2",
"s. c #F9F6F2",
"d. c #F8F7F2",
"f. c #F9F7F2",
"g. c #F8F6F3",
"h. c #F9F6F3",
"j. c #F8F7F3",
"k. c #F9F7F3",
"l. c #FAF7F3",
"z. c #F8F7F4",
"x. c #F9F7F4",
"c. c #FAF7F4",
"v. c #F8F8F3",
"b. c #F9F8F3",
"n. c #FAF8F2",
"m. c #FAF8F3",
"M. c #FBF9F3",
"N. c #F8F8F4",
"B. c #F9F8F4",
"V. c #F9F9F4",
"C. c #F9F8F5",
"Z. c #F9F9F5",
"A. c #FAF8F4",
"S. c #FBF8F4",
"D. c #FAF9F4",
"F. c #FBF9F4",
"G. c #FAF8F5",
"H. c #FBF8F5",
"J. c #FAF9F5",
"K. c #FBF9F5",
"L. c #FBFAF5",
"P. c #FAF8F6",
"I. c #FAF9F6",
"U. c #FBF9F6",
"Y. c #FBF9F7",
"T. c #FAFAF6",
"R. c #FBFAF6",
"E. c #FBFAF7",
"W. c #FBFBF7",
"Q. c #FCFAF5",
"!. c #FCF9F6",
"~. c #FCF9F7",
"^. c #FCFAF6",
"/. c #FCFAF7",
"(. c #FCFBF7",
"). c #FDFBF7",
"_. c #FBFAF8",
"`. c #FCFAF8",
"'. c #FCFBF8",
"]. c #FDFBF8",
"[. c #FCFBF9",
"{. c #FDFBF9",
"}. c #FCFCF8",
"|. c #FDFCF8",
" X c #FCFCF9",
".X c #FDFCF9",
"XX c #FDFDF9",
"oX c #FEFCF9",
"OX c #FEFDF9",
"+X c #FCFCFA",
"@X c #FDFCFA",
"#X c #FDFDFA",
"$X c #FDFDFB",
"%X c #FEFDFA",
"&X c #FEFDFB",
"*X c #FEFDFC",
"=X c #FEFEFC",
"-X c #FFFEFD",
/* pixels */
"XXR.k.R.k.XX(.(.(.v.XX`.(.( ;.7._.k.4.4.4.4.v.k.4.k.R.(.(.c._.R._.c.R.4.4.4.D 4.4.q.",
"(.k.k.c.k.`.R.R.k.k.(.(.c.E ;.q.R.4.( =.4.4.R.4.( =.k.c.c.c.R._.R.c.R.( 4.q.=.4.4.4.",
"(.k.4.R.c.XXc.k.k.k.(.k.k.N ;.q.R.4.4.4.4.R.R.=.( 4.k.R.R.q._.R.R.c.R.k.k.k.c.4.q.4.",
"(.k.k.R.R.`.k.k.$.k.(.(.4.E ;.q.R.R.k.4.4.c._.4.D ( c.R.4.q.R._.R.k.R.k.4.R.C.{ q.q.",
"R.k.k.R.R.R.c.k.( 4.4.v.4.;.;.R.R.c.R.4.4.R._.4.N E k.v.q.q._.R.R.k.v.=.k.4.v.=.R.q.",
"R.k.( k.R.R.k.k.=.( =.R.4.w ;.q.R.R.R.4.( R.R.4.E w ( c.R.4.R.`.R.k.R.k.=.4.R.k.W.v.",
"k.k.k.k.k.R.v.k.( 4.( R.4.E ;.C.R.c.c.4.4.R.R.q.( 1 4.R.C.4.R.XX).4.R.k.=.4.k.k.W.R.",
"v.k.4.k.( R.v.=.4.4.( 4.4.;.4._.k.k.R.4.4.q.q.c.;.w 4.R.q.4.c.R.R.D k.k.k.4.-.k.W.R.",
"S.-.( k.( R.k.k.4.x D k.4.4.R.C.k.v.k.k.4.c._.c.;.x 4.R.q.4.4.R.R.E ( v.k.4.=.k.(.v.",
"v.-.( ( =.v.k.4.4.( 0 =.4.4.R.R.4.k.k.k.4.R._.R.4.( 4.R.R.4.4.R.c.=.4.k.=.=.k.4.v.v.",
"v.( E ( 4.4.;.4.=.4.( =.q.4.C._.v.k.k.-.4.R.R.c.4.{ 4.R.P.;.E q.k.k.v.k.4.=.4.k.v.v.",
"k.E D 4.( 4.;.( =.4.=.4.4.4.R.R.k.k.v.k.4.q.R.R.4.4.4.R.q.E ;.q.k.k.R.( =.R.4.v.v.(.",
"k.( L k.( 4.( =.( 4.( 4.4.R.R._.k.k.n.-.=.4.R.R.q.{ 4.C.4.w q._.R.k.R.k.k.k.k.k.S.(.",
"v.( -.v.k.=.4.( E =.=.=.4.4.c.R.v.k.k.k.4.k.4.4.R.4.q.R.4.E 4._.R.v.k.k.c.R.c.k.k.v.",
"v.-.v.S.k.4.=.( ( =.D k.E q.R.R.n.-.n.k.4.q.4.4.4.4.4.R.C.E C.W.R.c.R.k.k.c.k.R.k.v.",
"S.S.v.S.k.k.=.L ( 4.=.4.4.q.R.R.S.k.n.k.4.q.c.R.v.4.C._.C.:.C.R.R.R._.R.c.4.;.(.k.v.",
"(.(.(.k.k.c.=.( k.S.v.k.4.q.R.`.(.k.k.k.4.c.R._.R.c.(.`.R.4.R.R.4.4.R.k.k.4.4.4.q.W.",
"(.(.(.k.R.R.4.k.v.(.(.k.R.R.R.R.R.(.(.k.4.R.-X`._.R.`.`.R.4.`.R.=.k.XXR.R.k.4.4.R.W.",
"S.(.(.v.R.`.=.=.S.S.v.v.R._.R.R.S.(.(.(.  R.-X`.c._.`.XXR.C.-XXX  k.XX(.R.4.4.q._.XX",
"(.S.(.(.`.`.R.v.k.S.k.c.R._.R.W.(.(.(.(.k.R.-X_.q._.(.XXR._.`.XXR.k.`.R.c.4.4.4._.W.",
"S.S.).).(.R.`.`.k.S.S.).R.$XW._.(.(.`.XXk.(.`.`.R.R.R.`._.R._._.v.k.(.R.v.k.=.=.v.R.",
"(.S.(.).k.R.(.`.-.v.v.XX_.-X-X-X`.(.`.R.k.k.R.R.R.4.R.R.R.q.R.c.k.4.-.( k.4.( D L k.",
").S.S.S.v.R.k.k.$.-.v.(.R.W._.W.(.(.`.c.k.4.c.v.c.w x k.R.q.R.R.k.R.R.L 4.v.4.=.D L ",
").S.S.v.k.k.=.k.( ( -.k.R.R.4.C.(.S.S.k.=.;.c.4._.E w c.R.c.R.c.k.R.v.k.R.R.R.R.v.R.",
").v.S.v.-.k.-.=.L =.=.k.R.c.4.R.R.R.q.4.4.4.R.R.`.R.4.k.R.R.(.R.R.c.c.R.R.C.4.XXXXR.",
").S.v.).v.-.k.L D 4.k.R.R.c.4.4.4.4.C.4.4.c.`.R._.R.k.k.R.`.XX`._.R.R.c.4.4.k.R.XXR.",
").S.S.).-.=.=.D L k.k.(.c.c.=.4.4.4.4.4.=.R.`.`.R.(.c.k.R.XXXX`.R.R.R.R.q.v.v.4.R.R.",
"v.v.S.).k.=.v.L x k.k.(.R.4.( 4.4.4.4.4.( R.(.k.R.R.c.c.R.`.-X`.k.R.R.k.q.q.=.k.4.R.",
"v.-.v.S.=.=.=.=.=.k.k.R.R.q.4.4.4.4.=.4.( R.R.R.c.R.k.k.R.R.(.R.  v.R.k.4.=.( =.q.=.",
"v.-.i.S.=.=.v.=.4.R.4.4.4.4.( ( { =.=.{ D 4.R.k.c.R.k.k.c.c.(.k.  k.(.R.k.k.E =.4.=.",
"v.-.=.v.=.=.-.=.4.k.k.k.k.k.E ;.E ( { { ( 4.k.k.4.R.k.k.k.k.k.k.v.R.XXC.=.=.P D 4.D ",
"4.( =.k.=.=.k.=.( =.R.R.k.4.E ( E ( =.( ( k.k.k.4.k.( -.-.-.(.v.W.W.R.=.=.=.L D =.D ",
"=.( =.( u k.k.L =.R.R.R.v.=.( E D ( 4.( ( R.v.k.k.k.( k.k.=.R.R.XX(.v.v.4.( E x ( E ",
"D D =.=.L k.k.L =.R.k.R.k.=.( ( x ( 4.L D k.k.k.k.( D -.4.4.4.v.`.R.k.(.c.( E 0 D ( ",
"f D D ( L k.k.-.( R.4.v.;.k.( E x 4.( ( L E =.k.4.( D k.4.4.4.4.(.-.L k.k.=.D 1 w E ",
"0 D L L L -.4.( ( R.4.4.( k.( E N =.=.( =.( 4.k.4.=.=.=.( =.k.4.k.(.k.k.4.=.L 0 x =.",
"0 x f L ) =.=.=.L k.k.( ;.k.4.( E =.( ( ( =.k.4.( D k.4.( 4.4.=.k.k.R.k.E D D u 0 =.",
"f f D L L =.( =.x 4.=.=.( k.k.( =.=.E L =.k.k.( u u ( ( ( E =.( ( L =.=.x u x t 0 D ",
"D u u L f ( L =.u k.( 4.( k.k.=.4.4.( L ( R.R.=.0 1 E =.( E ( ( L L =.D 1 u u 1 0 D ",
"L e 1 u f =.D L x u L =.( k.k.=.4.4.=.=.=.R.c.=.0 $ x ( 4.=.E E L ( D * O 1 x * 4 D ",
"u e * e u ( L x u u n ( k.k.k.( 4.4.=.4.  R.v.( D % * D 4.( D ( L L x O O % u # * u ",
"u * * D x ( u u u u ( ( =.k.-.k.4.k.4.=.D k.v.=.D 1 0 =.4.L D ( L ( u o O 1 u o * x "
};
