/* XPM */
static char *a7bdd592c01d4e6db84e930896b0cc2cDkag1aHtghdWZkMJ[] = {
/* columns rows colors chars-per-pixel */
"42 42 2 1 ",
"  c None",
". c black",
/* pixels */
"                                          ",
"                                          ",
"                                          ",
"                                          ",
"                          .               ",
"                          .               ",
"                         ...    ..        ",
"                         ...   ....       ",
"                        ...    ....       ",
"                        ...    ....       ",
"                        ..    ......      ",
"                       ..     .......     ",
"                   .    .     .......     ",
"                    .         ...... .    ",
"                    ..        .... . .    ",
"        .      .    ...      ..... .  .   ",
"         .     ..    ..      ......   .   ",
"         ..    ...   ...     ......   ..  ",
"         ..   .. .   ...     ......   ..  ",
"         ...  ..     ....    ...  .   ..  ",
"      .  ...  ..     ....    ... ....  .  ",
"      .   ...  ..    ....    ...  .       ",
"     ..   ...   .     ....   . .  .       ",
"    ...   ...         .....  . . .        ",
"    ...   ...          ...   .   .        ",
"   ....    ...         ...                ",
"  .....    . .         ...                ",
"  .....      .         .                  ",
" ......       .                           ",
" ......            .    .                 ",
" ......  .         .    .                 ",
" ...... ..                                ",
"....... ..                                ",
"  ....  ...                               ",
"       ....                               ",
"       .....                              ",
"         ...                              ",
"          ...                             ",
"                                          ",
"                                          ",
"                                          ",
"                                          "
};
