/* XPM */
static char *_9031c5c48ab4288f24f3bd716899940htJWJULlIwLtwrMf[] = {
/* columns rows colors chars-per-pixel */
"42 42 228 2 ",
"   c None",
".  c #030303",
"X  c #0A0606",
"o  c #090806",
"O  c #0B0B0A",
"+  c #070807",
"@  c #180A09",
"#  c #12110F",
"$  c #1E190D",
"%  c #141413",
"&  c #1C1C1B",
"*  c #1A1816",
"=  c #0E0F10",
"-  c #201D1D",
";  c #261312",
":  c #29100C",
">  c #352608",
",  c #302B18",
"<  c #242323",
"1  c #2C2B2B",
"2  c #2A2826",
"3  c #2E3234",
"4  c #333333",
"5  c #3C3C3C",
"6  c #383637",
"7  c #36312F",
"8  c #450607",
"9  c #511A1B",
"0  c #710C0E",
"q  c #68191A",
"w  c #711315",
"e  c #472D0D",
"r  c #4C3907",
"t  c #543C0C",
"y  c #483414",
"u  c #613909",
"i  c #593838",
"p  c #473730",
"a  c #71292A",
"s  c #3E413B",
"d  c #534117",
"f  c #484416",
"g  c #795E08",
"h  c #784B14",
"j  c #79521A",
"k  c #6A5510",
"l  c #6C6607",
"z  c #7F6705",
"x  c #717310",
"c  c #42413A",
"v  c #574D33",
"b  c #64592D",
"n  c #6A683A",
"m  c #363F42",
"M  c #3D4548",
"N  c #444444",
"B  c #4C4C4C",
"V  c #484745",
"C  c #575647",
"Z  c #4F4F51",
"A  c #525353",
"S  c #595857",
"D  c #4E524A",
"F  c #764242",
"G  c #685050",
"H  c #64635D",
"J  c #6E6D58",
"K  c #696953",
"L  c #5F5F60",
"P  c #5F676A",
"I  c #646464",
"U  c #6C6B6A",
"Y  c #64777C",
"T  c #737373",
"R  c #7C7C7C",
"E  c #717779",
"W  c #6E716E",
"Q  c #850A0D",
"!  c #8E1A1C",
"~  c #941A1D",
"^  c #8B282A",
"/  c #9E2B2D",
"(  c #A43234",
")  c #825116",
"_  c #83541B",
"`  c #8D5B1D",
"'  c #87571A",
"]  c #895719",
"[  c #876704",
"{  c #8A641C",
"}  c #92671C",
"|  c #92700D",
" . c #8A5B23",
".. c #905E22",
"X. c #896525",
"o. c #916326",
"O. c #9A7C29",
"+. c #947437",
"@. c #854142",
"#. c #945657",
"$. c #B44D4F",
"%. c #A64749",
"&. c #997D43",
"*. c #8F6F6F",
"=. c #BD6B6D",
"-. c #A46E6F",
";. c #7E9236",
":. c #7B8678",
">. c #849212",
",. c #AB8702",
"<. c #B48B03",
"1. c #B88D03",
"2. c #BA9103",
"3. c #B69703",
"4. c #AC8912",
"5. c #BEA101",
"6. c #AAA21C",
"7. c #878A33",
"8. c #9C892E",
"9. c #AD902C",
"0. c #AAAA2B",
"q. c #D39E01",
"w. c #C79902",
"e. c #C5A804",
"r. c #D6A403",
"t. c #D6AD03",
"y. c #DBB706",
"u. c #DFBB12",
"i. c #D0B51E",
"p. c #D5AF0A",
"a. c #E0BE16",
"s. c #E1BF18",
"d. c #DFBA24",
"f. c #D0B12A",
"g. c #E0BE25",
"h. c #E9CA03",
"j. c #E2C21A",
"k. c #ECD110",
"l. c #E4C727",
"z. c #E6CE39",
"x. c #E6CE37",
"c. c #E7D03B",
"v. c #ECD532",
"b. c #92894C",
"n. c #A99C42",
"m. c #A89758",
"M. c #B9B54E",
"N. c #ACA654",
"B. c #B3A559",
"V. c #BCBA55",
"C. c #ADA445",
"Z. c #88867E",
"A. c #8F946C",
"S. c #A69667",
"D. c #ABB56E",
"F. c #B6AF75",
"G. c #CCB75C",
"H. c #C8B14D",
"J. c #C4B263",
"K. c #D9C441",
"L. c #E4C845",
"P. c #EAD75C",
"I. c #D8C575",
"U. c #CFC870",
"Y. c #EDDC6A",
"T. c #ECDB67",
"R. c #ECDB78",
"E. c #F0E16D",
"W. c #C57F80",
"Q. c #7C8C89",
"!. c #898887",
"~. c #9E8383",
"^. c #8B9487",
"/. c #999A88",
"(. c #8A9496",
"). c #949493",
"_. c #9B9C9C",
"`. c #999997",
"'. c #B39797",
"]. c #A98C8C",
"[. c #9FA58E",
"{. c #A3A299",
"}. c #B8B497",
"|. c #B2AC8A",
" X c #9F9FA0",
".X c #9CA1A2",
"XX c #A4A5A4",
"oX c #ACACAB",
"OX c #A7A7A8",
"+X c #B7B5A7",
"@X c #B2B3B3",
"#X c #BDBDBC",
"$X c #B0ACAB",
"%X c #C2A8A8",
"&X c #C79394",
"*X c #BFC0BC",
"=X c #D9D398",
"-X c #D3CE8D",
";X c #E7D787",
":X c #F1E79B",
">X c #F0E690",
",X c #C4C5A7",
"<X c #C8C5B6",
"1X c #D7D8B3",
"2X c #D7D0AB",
"3X c #E6DCAC",
"4X c #F3EAA1",
"5X c #F4E9A7",
"6X c #EEE9BF",
"7X c #BEBFC0",
"8X c #C4C4C3",
"9X c #CBCCCB",
"0X c #C8C8C7",
"qX c #D4D5C9",
"wX c #D4D4D3",
"eX c #DBDCDB",
"rX c #DBDBD6",
"tX c #F4EFC8",
"yX c #E6E6DD",
"uX c #FAF6D7",
"iX c #F9F5CE",
"pX c #E2E3E2",
"aX c #EDEDED",
"sX c #E9E8E7",
"dX c #F5F4F3",
"fX c #FAFAFA",
"gX c #F8F8F8",
"hX c #F2F1E8",
/* pixels */
"                                        % < %                                       ",
"                        . . . . . . . O - 5 B 3 O .                                 ",
"                      . . . . . . . o % 1 V U T 1 . o %                             ",
"                      X X . . . . . o & 4 Z U I 1 . 2 6 + O +                       ",
"                    . O % X . . . . . & 5 H W 1 . . 5 T 6 1 +                       ",
"              . X = & 3 2 O . . . . = 1 V I !.S . . < W S < . .           fX        ",
"              . X 3 S Z 6 & % X . + = < 1 - Z U X + N B m - O .           fX        ",
"          . . . * N A Z V 7 ; ; 9 q q 0 0 q F ~.V 2 5 < & % + . .         aXfX      ",
"        . . . . o % V - a a ^ ^ ^ w q q q F #.~.*.XX].i 8 : . . . .       eXfX      ",
"            . . . % 2 p %.a *.'.$XS + . + & - & & i G a Q 0 8 @ .         eXaX      ",
"            . . . O = *.$.F @XwXpXeXS o + . . & T OX8XT X : 8 8 @ .     0X0XwX      ",
"          . . . . . - $X/ *.0XeXeXpX9XZ I m Z @XpXsXdXwX7 . . . . . .     8XwXsX    ",
"        . . . + X . I W.~ ~.9XwXeXeX@X< V 6 B @XpXeXpXeX!.& . . . . .     @X9XeX    ",
"        . . % * + * '.( ^ !.9XwXeXwX#XN * V - _.eXeXeXwXXX< . . . . . . S oX#X9X    ",
"        . % < < . G =.! @.S 0XwXwXwX9X).K v Z.0XwXwX9X0XT X . X O o . .   XX#X      ",
"      . . o & 1 % -./ / F &  X9X9X<XI.I.;X=X3X=X<X9X#XT % . O % < < X     XX#XXX    ",
"      . . . + % i $.Q $.v . 6 oX%XG.a.v.E.4XiXuX3X{.I O . . + - 1 V 3 O   _.0X).    ",
"        . . . X @.~ ~ =.6 o I XX.XS.s.h.k.v.E.5X-X<X0X!.= . . - % 1 N &   !.9X!.    ",
"      . . . . ; / Q ( &X7 R sXwX%X{.B.j.h.h.l.G.*XaXdXgX`.= . & % + < % . S 9XR     ",
"    . . . O O @ 0 8 #.@X*.aXgXaXaXeX$XJ.l.h.i.}.pXgXdXhX=Xf . = . . % % . 4 :.U     ",
"        X < - O & = * L rXgXgXgXfXdXeXoXJ.H.|.qXuX1X=XH.0.r . . . . . . $ n b.A.D.  ",
"      . & 1 B 1 5 % . !.dXaXaXaXaXaXsXwX+X}.|.-XV.N.9.} ..> . + + . + o < v b 7.    ",
"      % O 1 V T B . 1 9XeXeXyXrXeX1X1XV.D.M.8.9.{ o.] ]  .t X = & - 2 - 1 W d b     ",
"    m 1 o % < I B . I qX,X*XU.F.V.C.N.8.O.} ` { j o._  ...+.b & 6 B 4 < O - y d     ",
"    4 1 * - * & Z 7 m.M.n.C.8.8.} o...) o.' o.` ' o.o.&.S.+XXX2 & L 3 O - % > r t   ",
"  7 6 4   f > > p b 8.| X.{ ) o.) ..]  .` j o.X.b.A./.{..XOXoX).7 - *       y r r   ",
"    5       e j e y } ) ..' _ ..) } ' &.m.|.|.{._.`.`._.OX8XeX9Xm . + =       t     ",
"            t  .h h ] ' o.' +.+.S.F.}.<XqXrXwX9X0X8X8X9XwXeXeX9Xc . M               ",
"            h  .h j b.S.F.}.+X@X#X#X7X#X8X8X#X#X7X7X%X7XwXwXwX0XS M Y               ",
"            H J K 5 A `.8X9X@XOXXXXXXXXXoX@XXXXXXXoXoXoX0X9X7X(.Y Y P P             ",
"            Z A A.A.m 3 V W R !.!.)./.[.,X*X{._.`.(._.#XeX7XQ.Y ^.:.V B             ",
"            4 1 D [.^.A 6 3 4 6 c C 0.6.0.N.D.qX.X(.#XpXeX.XE ^.Z.4 2 4             ",
"              & = V R S p 2 7 4 6 s >.l k l >.;X^.Y E L p 7 C U s # *               ",
"                  4.n.B.m.8.| k f C ;.;.>.;.x b.C f k [ 8.N.F.m.9.                  ",
"                d.;XtXiXyXtX-X0.,.g p D J 5 % , l ,.5.I.tXuXuXiX3XL.r.              ",
"              p.R.5X:X:X:X:X:XT.e.3.z , p 1 $ [ 3.5.K.5X4X4X:X4X5X:Xg.q.            ",
"            r.g.T.Y.Y.Y.T.Y.Y.P.y.5.<.r * % d ,.3.p.z.Y.Y.Y.Y.Y.T.Y.L.r.            ",
"            r.a.x.c.c.c.x.z.c.l.y.t.5.l # # z 3.e.y.j.x.c.c.c.c.z.z.g.q.            ",
"            w.t.u.a.u.g.s.j.a.y.y.t.w.[ # # g 2.t.y.y.u.s.s.s.s.a.a.t.q.            ",
"              1.2.2.2.2.1.1.<.<.<.<.| r . X > [ ,.<.<.<.<.<.2.<.1.1.1.|             ",
"                                                                                    ",
"                                                                                    "
};
