/* XPM */
static char *e834a33302674f1cbf6b519d828e1e89HYSVgl4XeK7eXlOW[] = {
/* columns rows colors chars-per-pixel */
"42 42 230 2 ",
"   c #030302",
".  c #090606",
"X  c #070807",
"o  c #090906",
"O  c #0B0B0A",
"+  c #150A0A",
"@  c #11110F",
"#  c #1E190D",
"$  c #141413",
"%  c #1A1816",
"&  c #1C1B1B",
"*  c #2A110C",
"=  c #261312",
"-  c #211E1D",
";  c #37270A",
":  c #24221D",
">  c #383114",
",  c #242423",
"<  c #2A2826",
"1  c #2C2C2B",
"2  c #332E2E",
"3  c #36332E",
"4  c #2F3033",
"5  c #333333",
"6  c #383737",
"7  c #3C3C3C",
"8  c #450607",
"9  c #511A1B",
"0  c #68191A",
"q  c #711011",
"w  c #4D350F",
"e  c #4D3808",
"r  c #4D362F",
"t  c #483C3B",
"y  c #71292A",
"u  c #3E413B",
"i  c #504417",
"p  c #795E08",
"a  c #725314",
"s  c #76680A",
"d  c #43413A",
"f  c #584D33",
"g  c #68592F",
"h  c #6B693B",
"j  c #3C4447",
"k  c #444443",
"l  c #484646",
"z  c #4C4B4B",
"x  c #4F504D",
"c  c #585845",
"v  c #52514F",
"b  c #535352",
"n  c #5A5957",
"m  c #5A5959",
"M  c #764242",
"N  c #685050",
"B  c #62625E",
"V  c #706B51",
"C  c #5F5F60",
"Z  c #656563",
"A  c #6B6866",
"S  c #6B6E6D",
"D  c #6D6D6C",
"F  c #787669",
"G  c #63767C",
"H  c #747473",
"J  c #757878",
"K  c #7D7D7C",
"L  c #850A0D",
"P  c #911A1C",
"I  c #8B282A",
"U  c #9E2B2D",
"Y  c #A43234",
"T  c #825116",
"R  c #86561A",
"E  c #8D5B1D",
"W  c #896914",
"Q  c #92671C",
"!  c #8A5B23",
"~  c #905E22",
"^  c #896525",
"/  c #916326",
"(  c #947437",
")  c #8A4849",
"_  c #AD4A4C",
"`  c #997D43",
"'  c #8F6F6F",
"]  c #B56C6E",
"[  c #7E9236",
"{  c #849212",
"}  c #AA8A01",
"|  c #B79703",
" . c #BEA101",
".. c #AAA21C",
"X. c #96892F",
"o. c #AE9131",
"O. c #BC9B36",
"+. c #AAAA2B",
"@. c #C49A01",
"#. c #C5A804",
"$. c #D5AA05",
"%. c #DBB706",
"&. c #D1A911",
"*. c #DCB915",
"=. c #E0BE16",
"-. c #E1BF18",
";. c #DEB821",
":. c #D5B12D",
">. c #C3A33C",
",. c #C8A53C",
"<. c #E0BE25",
"1. c #E9CA03",
"2. c #E2C21A",
"3. c #ECD110",
"4. c #E4C727",
"5. c #E6CE39",
"6. c #ECD532",
"7. c #E7D03B",
"8. c #928A4E",
"9. c #A58B40",
"0. c #AA9C42",
"q. c #A89758",
"w. c #B0A94C",
"e. c #B3A559",
"r. c #BCBA55",
"t. c #85857E",
"y. c #948F71",
"u. c #A69667",
"i. c #98A064",
"p. c #B4AE72",
"a. c #B7A87B",
"s. c #C7A542",
"d. c #CAB454",
"f. c #E1BD41",
"g. c #C6B064",
"h. c #E6CC4D",
"j. c #E5D357",
"k. c #D2C772",
"l. c #ECDB67",
"z. c #EDDC6A",
"x. c #E7CE78",
"c. c #6A7C80",
"v. c #C57F80",
"b. c #7C8C89",
"n. c #858483",
"m. c #8E8584",
"M. c #8C8C8A",
"N. c #978887",
"B. c #8B9487",
"V. c #96958C",
"C. c #8A9496",
"Z. c #959593",
"A. c #989796",
"S. c #9A9996",
"D. c #9D9C9B",
"F. c #A88D86",
"G. c #A39D9B",
"H. c #B39797",
"J. c #9FA58E",
"K. c #B4AE8C",
"L. c #A2A19C",
"P. c #A6A89B",
"I. c #B9B399",
"U. c #9F9FA0",
"Y. c #9CA1A2",
"T. c #A5A5A3",
"R. c #AAA8A6",
"E. c #ADACAB",
"W. c #B1ACA9",
"Q. c #BAB6A6",
"!. c #B3B1AC",
"~. c #AFB2B1",
"^. c #B4B3B2",
"/. c #BAB7B2",
"(. c #BCBAB4",
"). c #BDBDBC",
"_. c #CBA894",
"`. c #C2AEA8",
"'. c #C0BEB9",
"]. c #BFC0BC",
"[. c #D3CE8D",
"{. c #D9D398",
"}. c #E8D68C",
"|. c #F0E690",
" X c #F1E79B",
".X c #C6C6A9",
"XX c #DED4A3",
"oX c #C6C3BA",
"OX c #D5CDB4",
"+X c #D7D8B3",
"@X c #E8D8A8",
"#X c #F3EAA1",
"$X c #F4E9A7",
"%X c #EEE9BF",
"&X c #BEBFC0",
"*X c #C4C4C2",
"=X c #C6C9C7",
"-X c #CBC9C4",
";X c #CBCCCB",
":X c #D2CDC7",
">X c #D1CFCA",
",X c #D4D3CA",
"<X c #D4D4D3",
"1X c #D8D7D2",
"2X c #DBDAD5",
"3X c #DCDCDB",
"4X c #E1DDD4",
"5X c #E1DED9",
"6X c #F4EFC8",
"7X c #E5E2DD",
"8X c #E9E6DC",
"9X c #F4EDD0",
"0X c #FAF6D7",
"qX c #E4E3E2",
"wX c #E9E7E1",
"eX c #EDEAE4",
"rX c #EEEDEB",
"tX c #F1EEE6",
"yX c #F1EFE9",
"uX c #F5F3E7",
"iX c #F4F2ED",
"pX c #F7F5F1",
"aX c #F6F5F2",
"sX c #F6F6F2",
"dX c #F9F6F2",
"fX c #F9F7F2",
"gX c #FAF9F5",
"hX c #FAF9F6",
"jX c #F7F7F8",
"kX c #FCFBF9",
/* pixels */
"kXhXgXkXdXkXkXkXgXgXkXkXeX1X;X'.wXyX>XE.H H M.D.<X).yXkXkXhXhXhXkXgXgXiXgXpXyXpXhXpX",
"kXhXiXgXhXkXgXgXhXdX3XM.k 1 < - 7 n n z < 7 z 7 A 7 T.(.*XiXhXkXhXgXhXiXpXfXiXpXpXpX",
"kXdXiXhXgXkXgXdXdX1XR.-             . $ 1 l D H 1   1 7 M.D.qXgXhXhXhXfXfXgXgXpXpXpX",
"kXdXhXkXkXkXgXdXrX3XE.& X .         O % 4 b D Z 1   < 6 & , v G.wXhXhXfXpXhXiXfXsXpX",
"hXgXdXhXgXhXtX2XwX2XH + $ X         . % 7 m D 1 .   7 H 7 , 5 T.*XeXjXiXhXsXjXpXhXhX",
"hXdXpXhXgX7XV.2 7 7 , 1 , O         @ < z A m.n     , S n , . k E.7XkXhXiXhXjXhXhXhX",
"gXpXdXdXpX3XS.b o 2 m b 7 & $ o   X @ , < & b A X . j x 7 & O 7 >X2XfXhXfXhXhXpXhXhX",
"hXdXpXeX!.K B 1 $ k b z l 2 = = 9 0 0 q q 0 M N.l , 7 , & $ . . K 5XpXfXrXrXhXpXhXhX",
"gXiX8XZ.1 % O   X @ z - y y I I I 0 0 0 0 M ' F.' T.F.r 9 +     O Z oXpX7X2XhXhXgXgX",
"dXiXoXZ.!.S.Z &   $ , r _ y ' H.W.m X     $ $ & - t N y L L 8 + & L.).iX1X3XiXjXdXdX",
"dXiXwX(.(.S.H v   O O ' _ M ^.<XqX1XC X       & H E.*XH . * 8 8 + x V.2X3X3X2XpXhXdX",
"gXiXwX).D.H 2 @     , W.U ' =X3X3XqX;Xx A 7 b ~.qXwXpX<X2     .   & b !.3X*X2XrXdXhX",
"pXiX7XD.n 2 @ X .   A v.P N.;X<X3X3X^., k 6 x ~.qX3XqX3XM.-     1 3 z (.3X^.;X8XkXhX",
"dXiX(.D.B Z , % . % H.Y U m.;X<X<X3X&Xk $ k & D.3X3X3X<XT.:     @ 5 3 b R.E.].3XpXfX",
"hX-XoXW.A 5 , ,   v ] P I n =X<X<X1X;XV.V f t.*X<X<X<X*XH .   . O O & J T.R.].3XfXfX",
"wXoX).n.v 1 & 4 $ ] U U N & Y.;X>X:Xg.k.}.XX@XXXoX;X/.H $   O $ , , , (.rXE.].=XfXhX",
"rX7XG.D 7 & . $ r _ P _ l   u E.&Xg.=.4.z.#X0XuX{.P.Z O     X - < z 4 S wXE.*X^.iXkX",
"hXkXeXT.5     o ) P P ] r X Z Y.D.q.;.1.3.6.z.$X[.-X;Xn.@     - $ < k < U.E.;XT.rXkX",
"kXgX7XK O     = U L Y _.2 K qX<X'.G.e.4.3.1.3.r.oXrXpXjXS.O   & $ X , $ , D =XM.eXkX",
"iX>XD l O O O + q 8 ) `.K rXjXpXrX5XW.d.4.1.;.I.qXjXpXyX{.i   @     $ $   5 K t.8XkX",
"iXT.T.S.6 , - X = @ % C 3XhXpXjXpXpX3X!.g.:.K.=X9X+X{.r.0.e             # V 8.i.K.uX",
"iX*X(.z & 1 z 4 7 $ . m.iXtXrXrXrXrXeX<X^.I.K.[.r.w.o.Q Q ;     X O X O : f g 8..XuX",
"hXhXR.: O 1 k H v   1 ;X3X3XqX3X3XOXOXp.p.w.o.o.W / T E / w o @ & & , : 1 S w g +XiX",
"kXrXV.3 O $ , Z z   Z ;X).oXk.g.r.0.w.X.X.W R ~ R / T E / ( g % 6 z 4 : O : w i ].dX",
"kXT.7 1 % , % & z > q.r.+.0.X.X.Q ~ ! T / R ^ R ! / ^ 8.u.W.P.1 & m 6 1 7 $ ; e F.kX",
"1Xm 6 b R.y.> = 7 g X.Q ^ / T ~ T ! E R E R / ^ 8.y.V.D.T.R.E.Z.4 - , V.<XT.f e V eX",
"wXS.G.qXgX_.w a 9 w ~ T ~ R ! ~ T Q E ` q.K.K.P.V.Z.A.D.T.*X3X;Xu   $ K uXhXQ.y.Q.pX",
"hXpXgXkXdX4Xg ! a a E R / R ( ( q.a.I.oX,X1X<X;X-X*X*X;X<X3X3X;Xk   j ^.rXpXiXdXgXgX",
"gXkXhXhXdXiXu.R a g X.u.a.I.Q./.).*X&X&X].].].].).&X).&X<X<X<X*Xb j G =XpXpXiXpXpXpX",
"pXuXiXhXpXiXG.F h u b Z.).;X~.R.T.T.T.T.!.E.T.T.T.R.T.E.;X;X).C.G b.G Y.iXpXiXiXpXiX",
"dXiXpXhXpXrX' Z.P.y.j 4 z S K n.B.V.V.J.oX&XL.D.Z.Z.D.).3X&Xb.c.b.T.G.J tXpXiXiXpXiX",
"dXuXpXpXdXiXK S B.J.B.b 6 4 4 6 j c +...+.w.p.,XY.C.).qX3XU.G M.y.n.m n.iXiXiXuXiXiX",
"iXiXpXiXtXdX>XA l B ' n 3 < 2 5 4 u { s p s { |.b.G c.B d r c D D m H 7XpXiXiXtXiXyX",
"iXiXuXiXiXdXdXeXOXg.0.e.e.X.W a f c [ [ [ [ s 8.c i s s X.e.p.8.g.@XiXhXdXpXyXtXyXpX",
"rXuXiXpXiXdXiX@X:.|.%X0X6X6X[.+.} p r c c d # ; s } | k.%X0X0X6X$Xf.x.tXdXpXyXtXyXiX",
"eXiXiXiXuXiX@X;.}.#X X X X X Xl. .| s : u : # p }  .f.#X#X#X#X#X$X X<.x.pXpXtXwXtXpX",
"tXuXyXiXiXeX:.<.l.z.z.z.z.z.z.j.*. .} e % $ e }  .%.7.z.z.z.l.z.z.z.f.:.6XyXtX5XeXpX",
"uXrXuXtX8XOX&.=.7.7.5.5.5.5.h.4.%.$. .p $ $ p | #.%.2.7.7.7.7.7.5.5.<.$._.1X7X5XwXyX",
"uXtXeX7X:XI.&.$.*.=.2.-.2.2.-.%.%.$.@.p - : W | $.%.%.%.2.2.2.-.*.*.$.&.a./.>X4XtXyX",
"rXeX8X5X:X(.K.s.,.,.,.,.>.O.>.>.O.O.o.` v S F 9.O.O.O.O.O.>.>.>.s.s.s.e.G.'.>X4XwXyX",
"tXeX8X7X7X2X,X-XoX].(.oX].(.(.(.(./.W.U.n.^.^.^.!.W.!./.Q.'.'.'.oXoX-XoX-X1X4X4XwXtX",
"uXeXeXtXeXeXwX8X8X8X4X7X8X8XwX8X8X7X7X2X>X7X7X5X5X1X2X7X8X7X7X7XwXwX8X4X4X7XtX8XtXtX"
};
