/* XPM */
static char *_1a6c32fd7dc4d98a25b3a3cf37f644cEx0FCNDMEwzySUnl[] = {
/* columns rows colors chars-per-pixel */
"42 42 146 2 ",
"   c #942C1E",
".  c #9A2A1D",
"X  c #93321D",
"o  c #9D351E",
"O  c #972F23",
"+  c #9D3423",
"@  c #9D3B22",
"#  c #993428",
"$  c #9F3E28",
"%  c #AB2626",
"&  c #A42B23",
"*  c #AE2C25",
"=  c #AA2D28",
"-  c #A43524",
";  c #AB3424",
":  c #A43B25",
">  c #AC3B26",
",  c #A53529",
"<  c #A43C2A",
"1  c #AC3D2A",
"2  c #B23625",
"3  c #B23F27",
"4  c #BF3E27",
"5  c #B13329",
"6  c #B33C2A",
"7  c #BD3E29",
"8  c #AD3D31",
"9  c #C23F29",
"0  c #9E432B",
"q  c #A54125",
"w  c #AB4425",
"e  c #AE4926",
"r  c #A5432C",
"t  c #AC432C",
"y  c #AC4A2B",
"u  c #B34526",
"i  c #BA4427",
"p  c #B04B27",
"a  c #BD4827",
"s  c #B3442C",
"d  c #BC452B",
"f  c #B44A2D",
"g  c #BC4B2D",
"h  c #B4532F",
"j  c #BD512E",
"k  c #A54532",
"l  c #AB4531",
"z  c #A64A33",
"x  c #AE4C32",
"c  c #B34332",
"v  c #BD4731",
"b  c #B44D32",
"n  c #BB4E32",
"m  c #B44E3A",
"M  c #BF4E39",
"N  c #AF5031",
"B  c #B55235",
"V  c #BC5334",
"C  c #B65937",
"Z  c #BD5A36",
"A  c #B5533A",
"S  c #BC5539",
"D  c #B65A38",
"F  c #BE593B",
"G  c #C3442C",
"H  c #C24D2C",
"J  c #C84C2F",
"K  c #C5522E",
"L  c #C8552F",
"P  c #C34630",
"I  c #C24D32",
"U  c #C94C32",
"Y  c #C34E39",
"T  c #C35433",
"R  c #CA5533",
"E  c #C45935",
"W  c #CB5B34",
"Q  c #CC5E36",
"!  c #CE5F36",
"~  c #CE5E37",
"^  c #C3523A",
"/  c #C25439",
"(  c #C3563D",
")  c #C95639",
"_  c #CB563D",
"`  c #C15938",
"'  c #C35938",
"]  c #C25A38",
"[  c #C55B38",
"{  c #C75A39",
"}  c #C35C39",
"|  c #C45C3B",
" . c #C75D3B",
".. c #C4593D",
"X. c #C25D3C",
"o. c #C95D39",
"O. c #CD5D38",
"+. c #CE593C",
"@. c #C85F3C",
"#. c #CE5E3E",
"$. c #D05E35",
"%. c #CD6036",
"&. c #C7603B",
"*. c #C5603D",
"=. c #C9603B",
"-. c #CF613A",
";. c #CA613C",
":. c #C8633F",
">. c #CC623C",
",. c #CD623C",
"<. c #CE663F",
"1. c #CC693C",
"2. c #D26035",
"3. c #D06037",
"4. c #D0603A",
"5. c #D0613A",
"6. c #D3643A",
"7. c #D2643B",
"8. c #D3653B",
"9. c #D1673F",
"0. c #D6693D",
"q. c #D4683F",
"w. c #D5693F",
"e. c #D7713F",
"r. c #BD5D40",
"t. c #C05B40",
"y. c #C25E41",
"u. c #C66241",
"i. c #C96441",
"p. c #CC6640",
"a. c #CD6744",
"s. c #CE6842",
"d. c #CE6944",
"f. c #CA6549",
"g. c #CD694D",
"h. c #D46742",
"j. c #D16246",
"k. c #D36941",
"l. c #D56D43",
"z. c #D86C42",
"x. c #D2694B",
"c. c #D67544",
"v. c #D4704B",
"b. c #DC7249",
"n. c #CC6C51",
"m. c #D57256",
/* pixels */
"l.w.7.R T k.w.4.R ^ _ +.#.] ] R Q 4.| ! ! ,.$.9.,.Q R T R T h.b.:.4.8.3.! ! E ! ! %.",
"s.9.H i s / T K H g 9 H T v f a d g V j g K @.| R L H g V K R ! ] E K g a V a H W E ",
"v.a.k k k z k B E ] ! | ,.] T g m ^ ( ..S C C D p n | ,.} K t 6 c F B V T E V I T I ",
"! %.< - 1 u : B a H W E W R K H d 9 R T n D Z w : q E T K G t 1 6 f n ] T K H g H K ",
"] E n u B ] Z @.g Z [ E T V Z o.) I n S ^ r.F B n C F V C ] V n b B V ] T b b x l r ",
"Q R L H E w.7.H G T W R K H T ,.Q H H G U R K V H H W ! ! W L H K K H L ! l r 1 - - ",
"F V f ] | :.] l k z x b ] ] ] V f V V I T n S S V V j | &.o.F E o.Z f / p.A s r s f ",
"! Q ] K K R E : s t + l w.7.K G g H H T T a J W W E H L W W F ,.Q L H ! W L H n H L ",
"} s.y.n n V V y n f t b i.X.n g f b t z z l l f T &.o.V n V r.X.A f v b b t n S n V ",
":.w.W H H H L W ! | ! K H T ] R H T y 0 r < , f K W O.[ d H 3.h.S s 6 2 1 s W R Y P ",
"V V B T Z T V V E [ | E n r.m b s s t r z : : V j g A A c v S d.S 8 , > 1 c V V I I ",
"K H T H W 7.=.a K W w.:.T ) U U H K W W %.:.%.K L V T W ) G | z.4.H I =.W R H K w.h.",
"V B A g g b B t d B d.u.m / v d g g T K Z E E g B ..V E H 7 V E V Z Z ] L V g g | V ",
"s 3 1 ; 1 u f V j B R R ) I H R ! 9.! $.7.e.c.&.K $.4.:.H T W ! =.T T R ! I Y ) W I ",
"t t ; : l y w p f x V T d 7 n g n C B E E 1.1.F g v p.@.j g K T *.F g n ] s 4 H ] n ",
"4.9.y.,.-.W H o.! W K g O.W T T k < r r $ g Q 4.9.<.! W T T K K %.h.[ f t > - s K ! ",
"V / A g g g g ] L K a a g s s a , . r r # 3 d E h.X.E T a V S K V V S l 1 : ; f H K ",
"| l.| n n H E W o.X.[ E V ] ] o.T V S V ) ) ^ n T ,.<.,.g W <.,.| ] [ ) Y n [ ) ^ Y ",
"E ! T K V g g L E } E K g T V g s a f V T H 7 n H K V V s a W k.X.V T H 9 s T T G 7 ",
"X.V V ] [ ! ] C C B h t V o.^ Y m V T W / H T W Q V j ] ,.,.y.p.4.E I | O.o.) ] T T ",
"%.,.] H g T W C Z e : o g E U G v g g g g g H L W E K K T E S E T K H E K g g g H K ",
"&.=.| n n ^ [ ..F B Z j T V ..o.o.K n ..] E V V E | E V b y x y x i.g.n.f.A n B f > ",
"W L K H G G H R T V L L H G / ! E H T k.9.K a n H H T E p e e q B x.j.x.m.A s s > > ",
":.:.A n n c > S E Z E g s s 1 l m ^ ..i.S g T i.| } } &.Z V y f | x.f.d.f.S f > f ^ ",
"! ! b 1 s > ; E L W H i 5 * * * 7 G J W s a H 3.w.:.W K H T T K W W E E W K H H H Q ",
"B Z A f 1 1 f V E V T V 8 8 > g E [ } j n v T Z [ F ] ] B E &.T B V S } E V S / E V ",
"W W H J T H K W W V T R U P ! 3.w.w.&.H K W W K H L W ! I H W w.:.T K K W I G U T g ",
":.| n A ..T B F S ] ] V T v E T B C A b B E =.| j j o.&.S g V @.r.&.V / } n d T S n ",
"w.4.I G R R T V K K Q ! 3.L L H s > w p y <.7.R G g Q ! R H T G R w.,.! W K H I H K ",
"V i.V d n T n S V j E ] E T V T s 1 x B m y.y.t t x C B g S r.&.Z t f t s n V S / F ",
"=.w.Q H I H R W W o.! T K K T R K K n T R U H q q e B z a H -.w.B + .     < R R U P ",
"V T g V F T V T ] ] o.T B F b m t f b V ] n d N y 0 0 k 1 s Z s.A # O + : t V V I ^ ",
"K H T H Q ! o.d H $.w.-.T R ) G H H W W Q Q W K K n > I 7 5 T w.! H T Q W L H K w.w.",
"V B b s b b b l s n p.X.b ^ T G n a g E V F ] n n S l s s 3 n V V / C F T B g j E j ",
"s 6 6 ; t M v 3 ; n W W K H ..7.=.K I P ) ) T T K T W o.Q W W K K R K ! ! [ 4.! K K ",
"r < - ; l S b 1 1 V T T g n A V n g v 6 d T n A g g T ] ] E T g V V f g S A C g j g ",
"o.o.F T R W ! s.w.$.H d T [ R U c = % % 5 g K ! ! | H W 7.7.r.9.4.W H r : : @ t K ! ",
"! ,.X.V g T Z } <.V v s n / I G 6 ; & & > g j T E [ V j g f m V C g n r @ X   < j V ",
"E Q T K T > 1 s c n T ) ) I v R 4.h.| g T W O./ T -.9.Q > > 3 s V T T W ! V Y ) ) T ",
"E E g g V > 1 t s l T T G d g g V V V g K T [ S a d h.&.t > 6 s A T g K E g d H T b ",
"h.k.M Y ) E T F T E W E s 6 5 ; 6 Y ) ) ] 9.5.O.K n p.O.! H n H T c.:.o.W W H V I I ",
"E E d 9 H T v V a g E j ; ; & & 2 9 H T b ,.~ g a t V V g g V j K L E j K g g g j K "
};
